<svg width="320" height="170" viewBox="0 0 320 170" fill="none" xmlns="http://www.w3.org/2000/svg">
<path d="M241.484 87H242.634C244.18 87.2501 245.356 88.1168 246.417 89.2136C247.279 90.1062 248.205 90.9384 249.09 91.8167C249.308 92.0466 249.58 92.2193 249.881 92.3196C250.181 92.4198 250.502 92.4446 250.815 92.3916C252.252 92.1832 253.689 91.9964 255.127 91.7649C258.289 91.2547 260.732 92.9149 261.372 96.0455C261.659 97.4829 261.916 98.9418 262.135 100.399C262.266 101.272 262.677 101.863 263.469 102.258C264.762 102.906 266.044 103.6 267.32 104.293C270.051 105.774 270.958 108.577 269.62 111.382C268.981 112.73 268.326 114.071 267.655 115.407C267.48 115.726 267.388 116.084 267.388 116.448C267.388 116.812 267.48 117.17 267.655 117.488C268.326 118.819 268.981 120.161 269.62 121.513C270.952 124.319 270.041 127.119 267.32 128.602C266.011 129.314 264.699 130.02 263.371 130.694C263.042 130.847 262.758 131.081 262.545 131.373C262.331 131.666 262.196 132.009 262.151 132.368C261.922 133.786 261.683 135.198 261.432 136.606C260.857 139.794 258.546 141.53 255.358 141.138C253.899 140.958 252.443 140.744 250.991 140.51C250.21 140.383 249.573 140.563 249.009 141.131C248.161 141.993 247.259 142.789 246.422 143.656C245.362 144.754 244.186 145.62 242.639 145.87H241.49C240.297 145.661 239.195 145.098 238.328 144.254C237.251 143.192 236.15 142.154 235.075 141.092C234.853 140.853 234.576 140.672 234.267 140.566C233.959 140.46 233.629 140.432 233.307 140.485C231.851 140.701 230.394 140.893 228.941 141.121C225.815 141.608 223.38 139.943 222.76 136.834C222.473 135.391 222.219 133.94 221.997 132.482C221.866 131.609 221.461 131.016 220.666 130.613C219.386 129.975 218.129 129.284 216.868 128.601C214.081 127.103 213.159 124.289 214.528 121.433C215.163 120.104 215.804 118.779 216.469 117.465C216.646 117.147 216.739 116.789 216.739 116.425C216.739 116.062 216.646 115.704 216.469 115.386C215.795 114.055 215.144 112.712 214.505 111.361C213.172 108.558 214.086 105.746 216.804 104.267C218.114 103.549 219.426 102.85 220.755 102.176C221.085 102.021 221.369 101.785 221.582 101.49C221.795 101.195 221.929 100.85 221.971 100.488C222.2 99.0712 222.442 97.6563 222.697 96.2438C223.272 93.0586 225.588 91.3179 228.771 91.7118C230.208 91.89 231.646 92.0979 233.083 92.3356C233.909 92.4793 234.572 92.2824 235.163 91.6801C235.992 90.8321 236.887 90.0458 237.71 89.1935C238.76 88.1154 239.937 87.2501 241.484 87ZM255.019 105.271C254.92 104.292 254.178 103.546 253.249 103.546C252.617 103.536 252.186 103.886 251.769 104.305C244.499 111.594 237.228 118.882 229.955 126.167C229.801 126.312 229.656 126.468 229.524 126.633C229.327 126.882 229.208 127.184 229.182 127.501C229.156 127.818 229.225 128.135 229.381 128.413C229.514 128.69 229.725 128.924 229.988 129.086C230.25 129.247 230.554 129.33 230.862 129.324C231.495 129.341 231.926 128.985 232.343 128.566C239.547 121.348 246.752 114.129 253.958 106.911C254.163 106.738 254.348 106.543 254.509 106.329C254.697 105.985 254.868 105.632 255.019 105.271ZM255.035 125.483C255.037 124.669 254.878 123.862 254.568 123.109C254.258 122.356 253.802 121.671 253.227 121.095C252.651 120.518 251.968 120.061 251.216 119.749C250.464 119.437 249.657 119.276 248.843 119.277C248.024 119.275 247.212 119.436 246.456 119.75C245.699 120.064 245.013 120.525 244.435 121.106C243.857 121.686 243.4 122.376 243.09 123.134C242.781 123.892 242.624 124.704 242.629 125.523C242.644 127.167 243.305 128.739 244.47 129.899C245.635 131.058 247.21 131.712 248.854 131.719C250.497 131.704 252.068 131.042 253.226 129.875C254.383 128.709 255.033 127.132 255.035 125.489V125.483ZM235.255 113.59C236.897 113.594 238.474 112.948 239.641 111.793C240.809 110.639 241.472 109.069 241.487 107.427C241.492 105.783 240.85 104.203 239.698 103.03C238.546 101.857 236.979 101.185 235.335 101.16C233.692 101.155 232.113 101.799 230.942 102.952C229.771 104.104 229.102 105.673 229.08 107.316C229.069 108.135 229.221 108.948 229.526 109.708C229.831 110.468 230.284 111.16 230.858 111.744C231.432 112.328 232.116 112.792 232.871 113.11C233.626 113.428 234.436 113.593 235.255 113.596V113.59Z" fill="#E9E9E9"/>
<path d="M255.018 105.271C254.867 105.63 254.696 105.982 254.507 106.323C254.346 106.537 254.161 106.732 253.956 106.905C246.753 114.125 239.549 121.345 232.345 128.565C231.929 128.983 231.497 129.34 230.865 129.323C230.556 129.329 230.252 129.247 229.989 129.086C229.726 128.924 229.514 128.691 229.38 128.413C229.224 128.135 229.155 127.817 229.18 127.499C229.206 127.181 229.325 126.878 229.524 126.629C229.656 126.463 229.8 126.308 229.955 126.163C237.226 118.88 244.497 111.593 251.769 104.3C252.186 103.882 252.617 103.531 253.249 103.542C254.178 103.559 254.919 104.298 255.018 105.271Z" fill="white"/>
<path d="M255.034 125.488C255.033 127.132 254.383 128.708 253.226 129.875C252.069 131.042 250.497 131.705 248.854 131.719C247.211 131.713 245.636 131.06 244.471 129.901C243.306 128.742 242.645 127.171 242.629 125.528C242.624 124.709 242.78 123.897 243.09 123.139C243.4 122.381 243.857 121.691 244.435 121.111C245.012 120.53 245.699 120.069 246.456 119.755C247.212 119.441 248.023 119.28 248.842 119.281C249.657 119.281 250.463 119.442 251.215 119.754C251.968 120.066 252.651 120.523 253.226 121.1C253.801 121.676 254.257 122.361 254.567 123.114C254.878 123.867 255.036 124.674 255.034 125.488ZM248.837 128.302C249.582 128.305 250.298 128.011 250.827 127.486C251.356 126.961 251.655 126.248 251.658 125.502C251.654 124.748 251.351 124.025 250.816 123.493C250.281 122.961 249.557 122.662 248.802 122.662C248.058 122.678 247.35 122.985 246.83 123.517C246.309 124.049 246.018 124.764 246.018 125.508C246.019 125.877 246.093 126.242 246.236 126.582C246.378 126.922 246.586 127.23 246.848 127.49C247.11 127.749 247.42 127.955 247.761 128.094C248.103 128.234 248.468 128.304 248.837 128.302Z" fill="white"/>
<path d="M235.255 113.597C234.435 113.594 233.624 113.43 232.869 113.112C232.113 112.794 231.428 112.329 230.853 111.745C230.278 111.16 229.825 110.467 229.52 109.707C229.215 108.946 229.063 108.132 229.075 107.312C229.096 105.669 229.765 104.101 230.937 102.948C232.108 101.795 233.687 101.151 235.33 101.156C236.974 101.181 238.541 101.853 239.693 103.026C240.844 104.199 241.487 105.779 241.481 107.423C241.47 109.066 240.808 110.637 239.642 111.794C238.475 112.951 236.898 113.599 235.255 113.597ZM235.272 104.573C234.528 104.573 233.814 104.869 233.286 105.394C232.759 105.92 232.462 106.634 232.46 107.378C232.467 108.122 232.763 108.835 233.286 109.364C233.809 109.893 234.517 110.198 235.261 110.214C236.015 110.211 236.736 109.908 237.267 109.373C237.799 108.839 238.096 108.115 238.095 107.361C238.093 106.993 238.019 106.628 237.876 106.289C237.733 105.949 237.524 105.641 237.262 105.382C237 105.123 236.69 104.919 236.349 104.78C236.007 104.641 235.642 104.57 235.274 104.573H235.272Z" fill="white"/>
<path d="M248.837 128.304C248.468 128.306 248.103 128.235 247.762 128.096C247.421 127.956 247.11 127.751 246.849 127.492C246.587 127.232 246.379 126.924 246.236 126.584C246.094 126.244 246.02 125.88 246.018 125.511C246.018 124.767 246.309 124.052 246.829 123.519C247.35 122.987 248.058 122.68 248.802 122.664C249.557 122.664 250.281 122.962 250.816 123.495C251.351 124.027 251.654 124.749 251.658 125.504C251.655 126.249 251.355 126.963 250.827 127.488C250.298 128.013 249.582 128.306 248.837 128.304Z" fill="#E9E9E9"/>
<path d="M235.273 104.573C235.642 104.57 236.007 104.641 236.349 104.779C236.69 104.918 237.001 105.123 237.263 105.382C237.525 105.641 237.733 105.949 237.877 106.289C238.02 106.628 238.094 106.993 238.096 107.361C238.097 108.115 237.8 108.839 237.269 109.374C236.737 109.908 236.016 110.211 235.262 110.215C234.518 110.199 233.81 109.894 233.287 109.364C232.764 108.835 232.468 108.123 232.461 107.379C232.463 106.634 232.76 105.921 233.287 105.395C233.815 104.869 234.529 104.573 235.273 104.573Z" fill="#DDDDDD"/>
<path d="M69.6044 51.8973C69.6044 48.3681 72.3215 45.4694 75.5327 45.4694C82.9429 45.4694 87.389 53.4096 89.6121 58.5772H99.8628C101.962 53.4098 106.409 45.4694 113.942 45.4694C117.153 45.4694 119.87 48.3681 119.87 51.8973C119.87 55.5523 117.153 58.5772 113.942 58.5772H125.551C126.54 56.5607 127.157 54.2921 127.157 51.8973C127.157 44.2089 121.229 37.9072 113.819 37.9072C104.062 37.9072 98.0104 45.4694 94.6756 51.8973C91.3411 45.3432 85.2894 37.9072 75.5325 37.9072C68.1223 37.9072 62.1942 44.2089 62.1942 51.8973C62.1942 54.2921 62.8117 56.5607 63.7998 58.5772H75.5327C72.3215 58.5772 69.6044 55.5523 69.6044 51.8973Z" fill="#E9E9E9"/>
<path d="M100.566 149.707H136.121C138.234 149.707 139.85 147.641 139.85 144.939V76.9072H100.566V149.707Z" fill="#F0F0F0"/>
<path d="M48.8501 76.9072V144.939C48.8501 147.641 50.4663 149.707 52.5795 149.707H88.1344V76.9072H48.8501Z" fill="#F0F0F0"/>
<path d="M103.45 61.3066H100.98H90.3202H87.8501V92.6018V149.707H103.45V92.6018V61.3066Z" fill="#DDDDDD"/>
<rect x="119" y="88" width="82" height="62" rx="10.4" fill="#F14635"/>
<path fill-rule="evenodd" clip-rule="evenodd" d="M153.027 100.499C148.974 100.499 146.395 103.684 146.395 107.893C146.395 108.838 146.525 109.658 146.78 110.358H144.738C142.906 110.358 141.421 111.83 141.421 113.645V120.217H143.081V133.361C143.081 135.175 144.565 136.647 146.397 136.647H172.927C174.759 136.647 176.244 135.175 176.244 133.361V120.217H177.901V113.645C177.901 111.83 176.416 110.358 174.585 110.358H173.209C173.464 109.658 173.594 108.838 173.594 107.893C173.594 103.684 171.015 100.499 166.962 100.499C164.297 100.499 162.116 103.097 159.995 108.203C157.874 103.097 155.692 100.499 153.027 100.499ZM153.132 103.794C154.061 103.939 155.527 105.98 157.145 109.998L157.288 110.358H153.028C150.392 110.358 149.711 109.849 149.711 107.893C149.711 105.359 150.987 103.785 153.028 103.785L153.132 103.794ZM172.927 116.93C172.955 116.93 172.983 116.93 173.011 116.931H174.585V113.645H144.739V116.931H146.313C146.341 116.93 146.369 116.93 146.397 116.93H172.927ZM146.395 133.361V120.217H158.003V133.361H146.395ZM161.319 133.361H172.925V120.217H161.319V133.361ZM162.844 109.998C164.462 105.98 165.929 103.939 166.857 103.794L166.962 103.785C169.003 103.785 170.278 105.359 170.278 107.893C170.278 109.849 169.598 110.358 166.962 110.358H162.702L162.844 109.998Z" fill="white"/>
<path d="M146.78 110.358V110.508H146.995L146.921 110.307L146.78 110.358ZM141.421 120.217H141.271V120.367H141.421V120.217ZM143.081 120.217H143.231V120.067H143.081V120.217ZM176.244 120.217V120.067H176.094V120.217H176.244ZM177.901 120.217V120.367H178.051V120.217H177.901ZM173.209 110.358L173.068 110.307L172.995 110.508H173.209V110.358ZM159.995 108.203L159.856 108.261L159.995 108.594L160.133 108.261L159.995 108.203ZM157.145 109.998L157.285 109.943L157.284 109.942L157.145 109.998ZM153.132 103.794L153.156 103.645L153.144 103.644L153.132 103.794ZM157.288 110.358V110.508H157.508L157.427 110.302L157.288 110.358ZM153.028 103.785L153.04 103.635H153.028V103.785ZM173.011 116.931L173.007 117.081H173.011V116.931ZM174.585 116.931V117.081H174.735V116.931H174.585ZM174.585 113.645H174.735V113.495H174.585V113.645ZM144.739 113.645V113.495H144.589V113.645H144.739ZM144.739 116.931H144.589V117.081H144.739V116.931ZM146.313 116.931V117.081L146.317 117.081L146.313 116.931ZM146.395 120.217V120.067H146.245V120.217H146.395ZM146.395 133.361H146.245V133.511H146.395V133.361ZM158.003 120.217H158.153V120.067H158.003V120.217ZM158.003 133.361V133.511H158.153V133.361H158.003ZM161.319 133.361H161.169V133.511H161.319V133.361ZM172.925 133.361V133.511H173.075V133.361H172.925ZM172.925 120.217H173.075V120.067H172.925V120.217ZM161.319 120.217V120.067H161.169V120.217H161.319ZM166.857 103.794L166.845 103.644L166.834 103.645L166.857 103.794ZM162.844 109.998L162.705 109.942L162.705 109.943L162.844 109.998ZM166.962 103.785V103.635L166.95 103.636L166.962 103.785ZM162.702 110.358L162.562 110.302L162.481 110.508H162.702V110.358ZM146.545 107.893C146.545 105.818 147.18 104.007 148.304 102.716C149.427 101.427 151.043 100.649 153.027 100.649V100.349C150.959 100.349 149.259 101.163 148.078 102.519C146.899 103.873 146.245 105.758 146.245 107.893H146.545ZM146.921 110.307C146.673 109.627 146.545 108.825 146.545 107.893H146.245C146.245 108.852 146.377 109.689 146.639 110.41L146.921 110.307ZM144.738 110.508H146.78V110.208H144.738V110.508ZM141.571 113.645C141.571 111.914 142.988 110.508 144.738 110.508V110.208C142.825 110.208 141.271 111.746 141.271 113.645H141.571ZM141.571 120.217V113.645H141.271V120.217H141.571ZM143.081 120.067H141.421V120.367H143.081V120.067ZM143.231 133.361V120.217H142.931V133.361H143.231ZM146.397 136.497C144.647 136.497 143.231 135.091 143.231 133.361H142.931C142.931 135.26 144.484 136.797 146.397 136.797V136.497ZM172.927 136.497H146.397V136.797H172.927V136.497ZM176.094 133.361C176.094 135.091 174.678 136.497 172.927 136.497V136.797C174.841 136.797 176.394 135.26 176.394 133.361H176.094ZM176.094 120.217V133.361H176.394V120.217H176.094ZM177.901 120.067H176.244V120.367H177.901V120.067ZM177.751 113.645V120.217H178.051V113.645H177.751ZM174.585 110.508C176.335 110.508 177.751 111.914 177.751 113.645H178.051C178.051 111.746 176.498 110.208 174.585 110.208V110.508ZM173.209 110.508H174.585V110.208H173.209V110.508ZM173.444 107.893C173.444 108.825 173.316 109.627 173.068 110.307L173.35 110.41C173.613 109.689 173.744 108.852 173.744 107.893H173.444ZM166.962 100.649C168.946 100.649 170.563 101.427 171.685 102.716C172.809 104.007 173.444 105.818 173.444 107.893H173.744C173.744 105.758 173.09 103.873 171.911 102.519C170.73 101.163 169.031 100.349 166.962 100.349V100.649ZM160.133 108.261C161.191 105.713 162.259 103.805 163.386 102.536C164.511 101.269 165.685 100.649 166.962 100.649V100.349C165.574 100.349 164.324 101.028 163.162 102.337C162.002 103.643 160.919 105.587 159.856 108.146L160.133 108.261ZM153.027 100.649C154.304 100.649 155.478 101.269 156.603 102.536C157.73 103.805 158.798 105.713 159.856 108.261L160.133 108.146C159.07 105.587 157.987 103.643 156.827 102.337C155.665 101.028 154.416 100.349 153.027 100.349V100.649ZM157.284 109.942C156.473 107.928 155.698 106.403 155.005 105.361C154.659 104.84 154.331 104.435 154.026 104.15C153.724 103.867 153.431 103.689 153.156 103.645L153.109 103.942C153.298 103.971 153.536 104.103 153.821 104.369C154.103 104.633 154.416 105.017 154.755 105.527C155.432 106.546 156.199 108.051 157.006 110.054L157.284 109.942ZM157.427 110.302L157.285 109.943L157.006 110.053L157.148 110.413L157.427 110.302ZM153.028 110.508H157.288V110.208H153.028V110.508ZM149.561 107.893C149.561 108.88 149.731 109.562 150.291 109.979C150.567 110.184 150.924 110.315 151.371 110.395C151.818 110.476 152.365 110.508 153.028 110.508V110.208C152.372 110.208 151.846 110.176 151.424 110.1C151.002 110.024 150.695 109.905 150.471 109.738C150.032 109.412 149.861 108.862 149.861 107.893H149.561ZM153.028 103.635C151.965 103.635 151.092 104.047 150.487 104.795C149.886 105.539 149.561 106.603 149.561 107.893H149.861C149.861 106.65 150.174 105.659 150.721 104.983C151.264 104.311 152.049 103.935 153.028 103.935V103.635ZM153.144 103.644L153.04 103.636L153.016 103.935L153.12 103.943L153.144 103.644ZM173.015 116.781C172.986 116.78 172.957 116.78 172.927 116.78V117.08C172.954 117.08 172.981 117.08 173.007 117.081L173.015 116.781ZM174.585 116.781H173.011V117.081H174.585V116.781ZM174.435 113.645V116.931H174.735V113.645H174.435ZM144.739 113.795H174.585V113.495H144.739V113.795ZM144.889 116.931V113.645H144.589V116.931H144.889ZM146.313 116.781H144.739V117.081H146.313V116.781ZM146.397 116.78C146.368 116.78 146.339 116.78 146.31 116.781L146.317 117.081C146.344 117.08 146.37 117.08 146.397 117.08V116.78ZM172.927 116.78H146.397V117.08H172.927V116.78ZM146.245 120.217V133.361H146.545V120.217H146.245ZM158.003 120.067H146.395V120.367H158.003V120.067ZM158.153 133.361V120.217H157.853V133.361H158.153ZM146.395 133.511H158.003V133.211H146.395V133.511ZM161.319 133.511H172.925V133.211H161.319V133.511ZM173.075 133.361V120.217H172.775V133.361H173.075ZM172.925 120.067H161.319V120.367H172.925V120.067ZM161.169 120.217V133.361H161.469V120.217H161.169ZM166.834 103.645C166.558 103.689 166.265 103.867 165.963 104.15C165.659 104.435 165.33 104.84 164.984 105.361C164.292 106.403 163.516 107.928 162.705 109.942L162.983 110.054C163.79 108.051 164.557 106.546 165.234 105.527C165.573 105.017 165.886 104.633 166.168 104.369C166.453 104.103 166.692 103.971 166.88 103.942L166.834 103.645ZM166.95 103.636L166.845 103.644L166.869 103.943L166.974 103.935L166.95 103.636ZM170.428 107.893C170.428 106.603 170.103 105.539 169.502 104.795C168.897 104.047 168.024 103.635 166.962 103.635V103.935C167.94 103.935 168.725 104.311 169.268 104.983C169.815 105.659 170.128 106.65 170.128 107.893H170.428ZM166.962 110.508C167.624 110.508 168.171 110.476 168.618 110.395C169.066 110.315 169.423 110.184 169.698 109.979C170.258 109.562 170.428 108.88 170.428 107.893H170.128C170.128 108.862 169.957 109.412 169.519 109.738C169.294 109.905 168.987 110.024 168.565 110.1C168.144 110.176 167.617 110.208 166.962 110.208V110.508ZM162.702 110.508H166.962V110.208H162.702V110.508ZM162.705 109.943L162.562 110.302L162.841 110.413L162.984 110.053L162.705 109.943Z" fill="white"/>
<rect x="43" y="57.4062" width="103.35" height="24.05" rx="5.2" fill="#DDDDDD"/>
<circle cx="201" cy="52" r="25" fill="#E9E9E9"/>
<path fill-rule="evenodd" clip-rule="evenodd" d="M195.299 38.363V42.1325H208.535V38.363H195.299ZM203.141 65.6355H195.299V44.9491H208.535V48.4315H198.829V52.3184H203.141C208.031 52.3184 210.589 55.6505 210.589 58.9424C210.589 62.2685 208.031 65.6355 203.141 65.6355ZM198.832 62.1556H203.144C204.417 62.1556 205.458 61.7946 206.157 61.111C206.741 60.5393 207.063 59.7696 207.063 58.9443C207.063 57.4948 206.036 55.8027 203.144 55.8027H198.832V62.1556Z" fill="white"/>
</svg>
