<svg width="320" height="170" viewBox="0 0 320 170" fill="none" xmlns="http://www.w3.org/2000/svg">
<rect width="320" height="170" fill="white"/>
<path d="M139.38 149.5L132.476 134.098H126.634L136.725 149.5H139.38Z" fill="#ADADAD"/>
<path d="M67.2889 148.003L73.5223 134.098H81.489L71.7124 149.02C71.5162 149.319 71.1821 149.5 70.8239 149.5H68.2581C67.488 149.5 66.9738 148.706 67.2889 148.003Z" fill="#ADADAD"/>
<path d="M134.069 135.16H102.733H71.3978C69.6379 135.16 68.2112 133.734 68.2112 131.974H102.733H137.256C137.256 133.734 135.829 135.16 134.069 135.16Z" fill="#D4D4D4"/>
<path d="M137.256 69.3025V83.1114V107.542H102.733H68.2112V83.1114V69.3025C68.2112 60.5027 75.3448 53.3691 84.1445 53.3691H102.733H121.322C130.122 53.3691 137.256 60.5027 137.256 69.3025Z" fill="#D5D5D5"/>
<path d="M138.849 131.973H102.733H66.6179C64.2713 131.973 62.369 130.071 62.369 127.725V103.293C57.0579 103.293 49.6223 101.7 49.6223 93.2024C49.6223 83.1113 59.1823 79.3935 67.149 80.9868C75.1156 82.5802 78.3023 88.9535 78.3023 94.7957V105.949H102.733H127.165V94.7957C127.165 88.9535 130.351 82.5802 138.318 80.9868C146.285 79.3935 155.845 83.1113 155.845 93.2024C155.845 101.7 148.409 103.293 143.098 103.293V127.725C143.098 130.071 141.196 131.973 138.849 131.973Z" fill="#E9E9E9"/>
<path d="M214.957 90.6611C218.014 83.4477 228.415 84.0845 233.234 85.3046L242.07 88.2943C246.64 90.2508 255.291 96.0605 253.34 103.648C251.592 110.442 241.302 115.577 245.851 128.964C250.4 142.352 242.78 155.776 217.238 147.134C191.696 138.492 193.793 123.199 205.536 115.324C217.279 107.449 212.221 97.1209 214.957 90.6611Z" fill="#EFEFEF"/>
<rect x="242.394" y="57.3223" width="9.91128" height="51.0139" transform="rotate(18.6931 242.394 57.3223)" fill="#DCDCDC"/>
<circle cx="229.804" cy="109.995" r="7.57921" transform="rotate(18.6931 229.804 109.995)" fill="#C7C7C7"/>
<rect x="216" y="125.327" width="16.3245" height="4.95564" rx="1.74905" transform="rotate(18.6931 216 125.327)" fill="#D4D4D4"/>
<rect x="247.192" y="35.8652" width="14.5754" height="22.4461" rx="3.20659" transform="rotate(18.6931 247.192 35.8652)" fill="#DCDCDC"/>
<rect x="119" y="88" width="82" height="62" rx="10" fill="#F14635"/>
<path d="M143 107.771V131.955C143 134.471 145.04 136.511 147.555 136.511H172.445C174.96 136.511 177 134.471 177 131.955V107.771C177 104.417 174.281 101.697 170.926 101.697H149.074C145.719 101.697 143 104.417 143 107.771Z" stroke="white" stroke-width="3.34064" stroke-linejoin="round"/>
<path d="M151.471 109.889H168.528" stroke="white" stroke-width="3.34064" stroke-linecap="round" stroke-linejoin="round"/>
<path d="M151.471 117.056H162.119" stroke="white" stroke-width="3.34064" stroke-linecap="round" stroke-linejoin="round"/>
<path d="M155.985 125.269C155.985 124.346 155.237 123.598 154.314 123.598C153.392 123.598 152.644 124.346 152.644 125.269H155.985ZM155.985 136.056V125.269H152.644V136.056H155.985Z" fill="white"/>
<path d="M167.356 125.269C167.356 124.346 166.608 123.598 165.686 123.598C164.763 123.598 164.015 124.346 164.015 125.269H167.356ZM167.356 136.056V125.269H164.015V136.056H167.356Z" fill="white"/>
</svg>
