<svg width="320" height="170" viewBox="0 0 320 170" fill="none" xmlns="http://www.w3.org/2000/svg">
<path d="M210 41C210 58.6731 195.673 73 178 73C160.327 73 146 58.6731 146 41C146 23.3269 160.327 9 178 9C195.673 9 210 23.3269 210 41Z" fill="#E9E9E9"/>
<path d="M164.526 29.2108C164.526 27.3505 166.035 25.8424 167.895 25.8424H178H185.579H188.105C189.966 25.8424 191.474 27.3505 191.474 29.2108V30.895V41.0003V52.7898C191.474 54.6501 189.966 56.1582 188.105 56.1582H167.895C166.035 56.1582 164.526 54.6501 164.526 52.7898V29.2108Z" stroke="white" stroke-width="3.36842"/>
<circle cx="191.474" cy="40.9999" r="3.36842" fill="#F0F0F0" stroke="white" stroke-width="3.36842"/>
<path d="M179.684 54.4741V48.5794C179.684 48.1143 179.307 47.7373 178.842 47.7373H171.263" stroke="white" stroke-width="3.36842" stroke-linecap="round"/>
<path d="M188.105 41L171.263 41" stroke="white" stroke-width="3.36842" stroke-linecap="round"/>
<path d="M181.368 34.2627H171.263" stroke="white" stroke-width="3.36842" stroke-linecap="round"/>
<circle r="3.36842" transform="matrix(-1 0 0 1 179.684 56.1581)" fill="#F0F0F0" stroke="white" stroke-width="3.36842"/>
<rect x="53" y="40" width="81" height="109.714" rx="2" fill="#DDDDDD"/>
<rect x="65" y="65" width="57" height="7" rx="3.5" fill="white"/>
<rect x="65" y="78" width="54" height="7" rx="3.5" fill="white"/>
<rect x="65" y="92" width="28.9286" height="7" rx="3.5" fill="white"/>
<path d="M291 110C291 132.091 273.091 150 251 150C228.909 150 211 132.091 211 110C211 87.9086 228.909 70 251 70C273.091 70 291 87.9086 291 110Z" fill="#F0F0F0"/>
<path fill-rule="evenodd" clip-rule="evenodd" d="M251 147.895C271.929 147.895 288.895 130.929 288.895 110C288.895 89.0713 271.929 72.1053 251 72.1053C230.071 72.1053 213.105 89.0713 213.105 110C213.105 130.929 230.071 147.895 251 147.895ZM251 150C273.091 150 291 132.091 291 110C291 87.9086 273.091 70 251 70C228.909 70 211 87.9086 211 110C211 132.091 228.909 150 251 150Z" fill="#DDDDDD"/>
<path fill-rule="evenodd" clip-rule="evenodd" d="M261.526 99.4734C261.526 92.4971 256.813 86.8418 251 86.8418C245.186 86.8418 240.474 92.4971 240.474 99.4734C240.474 101.774 240.986 103.931 241.882 105.789H241.526C235.287 105.789 230.201 110.723 229.956 116.902L229.947 117.368V122.631C229.947 125.995 232.577 128.744 235.892 128.936L236.263 128.947H265.737C269.1 128.947 271.85 126.318 272.042 123.002L272.053 122.631V117.368C272.053 111.129 267.118 106.043 260.939 105.798L260.474 105.789H260.118C261.014 103.931 261.526 101.774 261.526 99.4734ZM241.526 110H245.179C246.846 111.33 248.848 112.105 251 112.105C253.152 112.105 255.153 111.33 256.821 110H260.474C264.407 110 267.621 113.082 267.831 116.964L267.842 117.368V122.631C267.842 123.711 267.029 124.601 265.982 124.722L265.737 124.737H236.263C235.183 124.737 234.294 123.924 234.172 122.877L234.158 122.631V117.368C234.158 113.434 237.24 110.22 241.122 110.011L241.526 110ZM244.684 99.4734C244.684 94.6701 247.699 91.0523 251 91.0523C254.301 91.0523 257.316 94.6701 257.316 99.4734C257.316 104.277 254.301 107.894 251 107.894C247.699 107.894 244.684 104.277 244.684 99.4734ZM257.316 116.315C256.153 116.315 255.21 117.258 255.21 118.421C255.21 119.583 256.153 120.526 257.316 120.526H261.526C262.689 120.526 263.631 119.583 263.631 118.421C263.631 117.258 262.689 116.315 261.526 116.315H257.316Z" fill="#4A4A4A"/>
<path d="M291 110C291 132.091 273.091 150 251 150C228.909 150 211 132.091 211 110C211 87.9086 228.909 70 251 70C273.091 70 291 87.9086 291 110Z" fill="#E9E9E9"/>
<path fill-rule="evenodd" clip-rule="evenodd" d="M261.526 99.5788C261.526 92.6026 256.813 86.9473 251 86.9473C245.186 86.9473 240.474 92.6026 240.474 99.5788C240.474 101.88 240.986 104.037 241.882 105.895H241.526C235.287 105.895 230.201 110.829 229.956 117.008L229.947 117.474V122.737C229.947 126.1 232.577 128.85 235.892 129.042L236.263 129.053H265.737C269.1 129.053 271.85 126.423 272.042 123.108L272.053 122.737V117.474C272.053 111.235 267.118 106.148 260.939 105.904L260.474 105.895H260.118C261.014 104.037 261.526 101.88 261.526 99.5788ZM241.526 110.105H245.179C246.846 111.435 248.848 112.21 251 112.21C253.152 112.21 255.153 111.435 256.821 110.105H260.474C264.407 110.105 267.621 113.188 267.831 117.069L267.842 117.474V122.737C267.842 123.816 267.029 124.706 265.982 124.828L265.737 124.842H236.263C235.183 124.842 234.294 124.029 234.172 122.982L234.158 122.737V117.474C234.158 113.54 237.24 110.326 241.122 110.116L241.526 110.105ZM244.684 99.5788C244.684 94.7755 247.699 91.1578 251 91.1578C254.301 91.1578 257.316 94.7755 257.316 99.5788C257.316 104.382 254.301 108 251 108C247.699 108 244.684 104.382 244.684 99.5788ZM256.21 116.421C255.658 116.421 255.21 116.869 255.21 117.421V119.631C255.21 120.184 255.658 120.631 256.21 120.631H262.631C263.184 120.631 263.631 120.184 263.631 119.631V117.421C263.631 116.869 263.184 116.421 262.631 116.421H256.21Z" fill="white"/>
<rect x="119" y="88" width="82" height="62" rx="10" fill="#F0F0F0"/>
<path fill-rule="evenodd" clip-rule="evenodd" d="M174.183 99.7727C174.183 98.7937 173.389 98 172.41 98H160.001C159.022 98 158.228 98.7937 158.228 99.7727V105.091V106.864V110.556C153.773 111.302 150.256 114.818 149.508 119.273H142.273C141.294 119.273 140.5 120.066 140.5 121.045V135.227C140.5 136.206 141.294 137 142.273 137H177.727C178.706 137 179.5 136.206 179.5 135.227V121.045C179.5 120.066 178.706 119.273 177.727 119.273H170.487C169.74 114.82 166.226 111.305 161.774 110.557V108.636H172.41C173.389 108.636 174.183 107.843 174.183 106.864V99.7727ZM161.774 105.091H170.635V101.546H161.771V105.091H161.774V105.091ZM166.865 119.273C166.078 116.214 163.302 113.955 159.998 113.955C156.694 113.955 153.917 116.214 153.13 119.273H166.865ZM144.046 122.818H175.955V133.455H144.046V122.818ZM161.774 126.363V133.454H158.228V126.363H161.774ZM154.684 126.363H151.139V133.454H154.684V126.363ZM165.315 126.363H168.861V133.454H165.315V126.363Z" fill="#F14635"/>
<path d="M158.228 110.556L158.245 110.654L158.328 110.64V110.556H158.228ZM149.508 119.273V119.373H149.593L149.607 119.289L149.508 119.273ZM170.487 119.273L170.388 119.289L170.402 119.373H170.487V119.273ZM161.774 110.557H161.674V110.641L161.757 110.655L161.774 110.557ZM161.774 108.636V108.536H161.674V108.636H161.774ZM161.774 105.091H161.674V105.191H161.774V105.091ZM170.635 105.091V105.191H170.735V105.091H170.635ZM170.635 101.546H170.735V101.446H170.635V101.546ZM161.771 101.546V101.446H161.671V101.546H161.771ZM161.771 105.091H161.671V105.191H161.771V105.091ZM161.774 105.091H161.874V104.991H161.774V105.091ZM166.865 119.273V119.373H166.994L166.962 119.248L166.865 119.273ZM153.13 119.273L153.033 119.248L153.001 119.373H153.13V119.273ZM175.955 122.818H176.055V122.718H175.955V122.818ZM144.046 122.818V122.718H143.946V122.818H144.046ZM175.955 133.455V133.555H176.055V133.455H175.955ZM144.046 133.455H143.946V133.555H144.046V133.455ZM161.774 133.454V133.554H161.874V133.454H161.774ZM161.774 126.363H161.874V126.263H161.774V126.363ZM158.228 133.454H158.128V133.554H158.228V133.454ZM158.228 126.363V126.263H158.128V126.363H158.228ZM151.139 126.363V126.263H151.039V126.363H151.139ZM154.684 126.363H154.784V126.263H154.684V126.363ZM151.139 133.454H151.039V133.554H151.139V133.454ZM154.684 133.454V133.554H154.784V133.454H154.684ZM168.861 126.363H168.961V126.263H168.861V126.363ZM165.315 126.363V126.263H165.215V126.363H165.315ZM168.861 133.454V133.554H168.961V133.454H168.861ZM165.315 133.454H165.215V133.554H165.315V133.454ZM172.41 98.1C173.334 98.1 174.083 98.8489 174.083 99.7727H174.283C174.283 98.7384 173.444 97.9 172.41 97.9V98.1ZM160.001 98.1H172.41V97.9H160.001V98.1ZM158.328 99.7727C158.328 98.8489 159.077 98.1 160.001 98.1V97.9C158.967 97.9 158.128 98.7384 158.128 99.7727H158.328ZM158.328 105.091V99.7727H158.128V105.091H158.328ZM158.328 106.864V105.091H158.128V106.864H158.328ZM158.328 110.556V106.864H158.128V110.556H158.328ZM149.607 119.289C150.347 114.876 153.831 111.393 158.245 110.654L158.212 110.457C153.714 111.21 150.164 114.759 149.41 119.256L149.607 119.289ZM142.273 119.373H149.508V119.173H142.273V119.373ZM140.6 121.045C140.6 120.121 141.349 119.373 142.273 119.373V119.173C141.238 119.173 140.4 120.011 140.4 121.045H140.6ZM140.6 135.227V121.045H140.4V135.227H140.6ZM142.273 136.9C141.349 136.9 140.6 136.151 140.6 135.227H140.4C140.4 136.261 141.238 137.1 142.273 137.1V136.9ZM177.727 136.9H142.273V137.1H177.727V136.9ZM179.4 135.227C179.4 136.151 178.651 136.9 177.727 136.9V137.1C178.762 137.1 179.6 136.261 179.6 135.227H179.4ZM179.4 121.045V135.227H179.6V121.045H179.4ZM177.727 119.373C178.651 119.373 179.4 120.121 179.4 121.045H179.6C179.6 120.011 178.762 119.173 177.727 119.173V119.373ZM170.487 119.373H177.727V119.173H170.487V119.373ZM161.757 110.655C166.167 111.397 169.648 114.878 170.388 119.289L170.586 119.256C169.831 114.761 166.285 111.214 161.79 110.458L161.757 110.655ZM161.674 108.636V110.557H161.874V108.636H161.674ZM172.41 108.536H161.774V108.736H172.41V108.536ZM174.083 106.864C174.083 107.787 173.334 108.536 172.41 108.536V108.736C173.444 108.736 174.283 107.898 174.283 106.864H174.083ZM174.083 99.7727V106.864H174.283V99.7727H174.083ZM161.774 105.191H170.635V104.991H161.774V105.191ZM170.735 105.091V101.546H170.535V105.091H170.735ZM170.635 101.446H161.771V101.646H170.635V101.446ZM161.671 101.546V105.091H161.871V101.546H161.671ZM161.771 105.191H161.774V104.991H161.771V105.191ZM161.674 105.091V105.091H161.874V105.091H161.674ZM159.998 114.055C163.255 114.055 165.992 116.282 166.768 119.298L166.962 119.248C166.164 116.146 163.348 113.855 159.998 113.855V114.055ZM153.227 119.298C154.003 116.282 156.74 114.055 159.998 114.055V113.855C156.647 113.855 153.832 116.146 153.033 119.248L153.227 119.298ZM166.865 119.173H153.13V119.373H166.865V119.173ZM175.955 122.718H144.046V122.918H175.955V122.718ZM176.055 133.455V122.818H175.855V133.455H176.055ZM144.046 133.555H175.955V133.355H144.046V133.555ZM143.946 122.818V133.455H144.146V122.818H143.946ZM161.874 133.454V126.363H161.674V133.454H161.874ZM158.228 133.554H161.774V133.354H158.228V133.554ZM158.128 126.363V133.454H158.328V126.363H158.128ZM161.774 126.263H158.228V126.463H161.774V126.263ZM151.139 126.463H154.684V126.263H151.139V126.463ZM151.239 133.454V126.363H151.039V133.454H151.239ZM154.684 133.354H151.139V133.554H154.684V133.354ZM154.584 126.363V133.454H154.784V126.363H154.584ZM168.861 126.263H165.315V126.463H168.861V126.263ZM168.961 133.454V126.363H168.761V133.454H168.961ZM165.315 133.554H168.861V133.354H165.315V133.554ZM165.215 126.363V133.454H165.415V126.363H165.215Z" fill="#F14635"/>
<circle cx="249.5" cy="30.5" r="25.5" fill="#E9E9E9"/>
<path d="M237.825 23.305C238.113 22.825 238.632 22.5312 239.191 22.5312H240.574H245.355L254.328 22.5312L259.156 26.6695C259.553 27.0099 260.028 27.2474 260.539 27.3609L264.826 28.3135C265.555 28.4756 266.074 29.1223 266.074 29.8693V35.2811H235.506L234.289 29.1978L237.825 23.305Z" stroke="white" stroke-width="3.18747"/>
<circle cx="241.371" cy="35.2812" r="3.18747" fill="#E5E5E5" stroke="white" stroke-width="3.18747"/>
<circle cx="258.902" cy="35.2812" r="3.18747" fill="#E5E5E5" stroke="white" stroke-width="3.18747"/>
</svg>
