<svg width="320" height="170" viewBox="0 0 320 170" fill="none" xmlns="http://www.w3.org/2000/svg">
<path d="M83.3572 107.315C81.1418 107.414 79.005 108.01 76.8259 108.339C75.3842 108.557 73.9576 108.853 72.519 109.083C71.7181 109.213 71.2405 108.644 71.4037 107.704C71.7906 105.453 72.2198 103.21 72.6127 100.962C72.8061 99.8946 73.0026 98.8247 73.1628 97.7518C73.2275 97.1136 73.1035 96.4704 72.8061 95.9021C70.813 91.4716 70.2323 86.5349 71.1429 81.7628C72.0535 76.9908 74.4113 72.6148 77.8958 69.2296C81.32 65.9548 85.65 63.7857 90.3232 63.0042C94.9963 62.2226 99.7965 62.8648 104.1 64.8471C108.59 66.8761 112.3 70.3097 114.669 74.6306C116.724 78.2437 117.782 82.3376 117.737 86.4938C117.691 90.65 116.543 94.7196 114.409 98.2867C114.3 98.4771 114.222 98.6887 114.128 98.8912C113.853 99.2479 113.566 99.5954 113.3 99.9581C110.284 104.195 105.936 107.302 100.951 108.783C97.2991 109.871 93.4421 110.078 89.6952 109.388C88.586 109.065 87.4798 108.732 86.3706 108.421C85.3339 108.146 84.4514 107.445 83.3572 107.315ZM94.2711 88.0439C90.1707 88.0439 86.0693 88.0439 81.967 88.0439C81.302 88.0439 80.6764 88.0983 80.22 88.6484C79.9822 88.8954 79.8245 89.2084 79.7673 89.5464C79.7101 89.8845 79.7563 90.2319 79.8996 90.5434C80.2895 91.4199 81.033 91.6859 81.9246 91.6859C90.1274 91.6859 98.3301 91.6859 106.533 91.6859C107.866 91.6859 108.679 90.9665 108.691 89.8724C108.691 88.733 107.887 88.059 106.463 88.059C102.399 88.0429 98.3352 88.0378 94.2711 88.0439ZM94.2711 78.9767C91.3756 78.9767 88.4772 78.9767 85.5817 78.9767C84.1582 78.9767 83.3482 79.6538 83.3633 80.7902C83.3784 81.9266 84.1733 82.5885 85.5183 82.6036C91.3112 82.6157 97.1041 82.6157 102.897 82.6036C104.233 82.6036 105.046 81.8933 105.061 80.8083C105.079 79.6658 104.266 78.9949 102.849 78.9949C99.9985 78.9737 97.1393 78.9798 94.2801 78.9798L94.2711 78.9767Z" fill="#E9E8E8"/>
<path d="M94.2713 88.0469C98.3374 88.0469 102.401 88.0469 106.464 88.0469C107.887 88.0469 108.7 88.7871 108.691 90.0386C108.691 91.2336 107.866 92.0303 106.533 92.0303C98.3303 92.0303 90.1276 92.0303 81.9248 92.0303C81.0332 92.0303 80.2897 91.7382 79.8998 90.7755C79.7565 90.4334 79.7104 90.0518 79.7675 89.6805C79.8247 89.3092 79.9824 88.9655 80.2202 88.6942C80.6766 88.1 81.3022 88.0303 81.9672 88.0303C86.0695 88.048 90.1709 88.0535 94.2713 88.0469Z" fill="white"/>
<path d="M94.2801 78.9819C97.1392 78.9819 99.9984 78.9819 102.858 78.9819C104.275 78.9819 105.088 79.7333 105.07 80.9769C105.07 82.1706 104.242 82.9486 102.906 82.9519C97.111 82.9652 91.3181 82.9652 85.5272 82.9519C84.1823 82.9519 83.3874 82.1805 83.3723 80.9569C83.3572 79.7333 84.1672 78.9619 85.5907 78.9619C88.4862 78.9752 91.3846 78.9819 94.2801 78.9819Z" fill="white"/>
<path d="M244.343 87.7461C244.154 89.7681 244.273 91.7946 244.254 93.8196C244.233 96.1899 243.124 97.6404 240.819 98.237C240.787 98.2522 240.757 98.2726 240.731 98.2972H233.473C233.437 98.262 233.404 98.2046 233.36 98.1929C231.463 97.7373 230.233 96.0386 230.183 93.7226C230.157 92.425 230.162 91.126 230.183 89.8269C230.177 89.1328 230.133 88.4396 230.049 87.7505L244.343 87.7461Z" fill="#E9E8E8"/>
<path d="M265.363 70.6991C264.819 71.716 263.945 71.985 262.844 71.9247C261.602 71.8571 260.355 71.9144 259.11 71.9071C258.046 71.9071 257.248 71.1429 257.245 70.1525C257.242 69.162 258.034 68.3979 259.1 68.3891C260.422 68.3802 261.737 68.4331 263.054 68.3729C264.147 68.3215 264.925 68.6844 265.363 69.7072V70.6991Z" fill="#E9E9E9"/>
<path d="M244.345 87.7469H230.048C229.772 86.7829 229.493 85.8203 228.924 84.971C228.487 84.3139 227.948 83.7318 227.325 83.2472C223.807 80.5257 221.678 76.9724 220.966 72.58C219.773 65.2133 224.011 57.7378 230.959 54.9458C240.053 51.2867 250.138 56.1214 252.964 65.4969C254.845 71.735 252.773 78.5756 247.674 82.7858C246.047 84.126 244.814 85.6675 244.345 87.7469ZM238.114 59.5938H237.894C236.642 59.6115 236.053 60.4153 236.036 61.3411C236.035 61.5803 236.083 61.8172 236.176 62.0374C236.269 62.2577 236.406 62.4567 236.578 62.6223C236.751 62.788 236.955 62.9168 237.179 63.0009C237.403 63.0851 237.642 63.1228 237.881 63.1119C238.246 63.1011 238.611 63.1386 238.967 63.2236C241.941 63.7452 244.247 66.4389 244.245 69.4352C244.245 70.6343 245.111 71.3456 246.023 71.3235C246.978 71.2956 247.759 70.7049 247.762 69.4558C247.772 67.7091 247.291 65.9946 246.374 64.5079C244.491 61.4219 241.694 59.8437 238.114 59.5938Z" fill="#E9E9E9"/>
<path d="M235.454 46.0693C235.454 45.3198 235.446 44.5704 235.454 43.8209C235.467 42.7658 236.235 41.9869 237.236 42.0002C238.209 42.0119 238.961 42.7893 238.969 43.818C238.978 45.3159 238.978 46.8143 238.969 48.3132C238.973 48.5469 238.931 48.7792 238.845 48.9965C238.759 49.2138 238.63 49.412 238.467 49.5796C238.304 49.7472 238.11 49.8809 237.895 49.973C237.68 50.0651 237.449 50.1138 237.216 50.1163C236.981 50.1148 236.75 50.0669 236.534 49.9754C236.318 49.884 236.123 49.7507 235.959 49.5834C235.795 49.4161 235.666 49.2179 235.579 49.0004C235.492 48.7829 235.449 48.5504 235.452 48.3162C235.445 47.5682 235.454 46.8187 235.454 46.0693Z" fill="#E9E9E9"/>
<path d="M213.114 68.388C213.863 68.388 214.613 68.388 215.362 68.388C216.391 68.4013 217.168 69.1566 217.18 70.1279C217.192 71.0993 216.395 71.8914 215.343 71.9017C213.862 71.9124 212.381 71.9124 210.901 71.9017C209.846 71.9017 209.058 71.1272 209.064 70.1382C209.07 69.1492 209.85 68.4013 210.92 68.391C211.652 68.3836 212.382 68.388 213.114 68.388Z" fill="#E9E9E9"/>
<path d="M252.608 56.5039C251.926 56.4481 251.366 56.1571 251.051 55.4973C250.737 54.8375 250.781 54.1439 251.294 53.6075C252.417 52.4319 253.567 51.2808 254.744 50.1541C255.413 49.5149 256.478 49.5957 257.125 50.2511C257.772 50.9065 257.845 51.9352 257.223 52.5921C256.092 53.7853 254.91 54.933 253.738 56.0866C253.441 56.3775 253.044 56.4804 252.608 56.5039Z" fill="#E9E9E9"/>
<path d="M218.518 49.7168C218.999 49.7223 219.459 49.9128 219.802 50.2488C220.874 51.3244 221.957 52.3884 223.019 53.4729C223.747 54.2076 223.742 55.2819 223.04 55.9711C222.337 56.6603 221.276 56.672 220.534 55.9402C219.451 54.8763 218.378 53.8025 217.315 52.719C217.057 52.4801 216.881 52.1657 216.814 51.8209C216.746 51.476 216.789 51.1186 216.937 50.7998C217.225 50.115 217.786 49.7829 218.518 49.7168Z" fill="#E9E9E9"/>
<path d="M252.588 83.7939C252.83 83.7941 253.07 83.842 253.293 83.9348C253.517 84.0276 253.72 84.1635 253.89 84.3347C254.963 85.4104 256.046 86.4743 257.107 87.5589C257.276 87.7209 257.41 87.9155 257.502 88.1307C257.594 88.346 257.641 88.5776 257.641 88.8116C257.641 89.0456 257.594 89.2772 257.502 89.4925C257.41 89.7078 257.276 89.9023 257.107 90.0644C256.946 90.227 256.753 90.3557 256.541 90.4431C256.33 90.5304 256.102 90.5747 255.873 90.5732C255.644 90.5717 255.417 90.5244 255.207 90.4343C254.996 90.3442 254.805 90.2129 254.646 90.0482C253.545 88.9755 252.458 87.8895 251.386 86.7903C251.13 86.5496 250.956 86.2334 250.892 85.8874C250.827 85.5415 250.874 85.1839 251.026 84.8667C251.313 84.176 251.877 83.8527 252.588 83.7939Z" fill="#E9E9E9"/>
<path d="M223.567 85.5311C223.562 86.0227 223.363 86.4923 223.013 86.8375C221.95 87.8971 220.898 88.9654 219.828 90.0161C219.063 90.7656 217.987 90.7509 217.283 90.0161C216.603 89.3078 216.629 88.2527 217.364 87.5091C218.431 86.429 219.499 85.3519 220.587 84.2923C221.136 83.756 221.803 83.6458 222.512 83.9544C223.22 84.263 223.512 84.8317 223.567 85.5311Z" fill="#E9E9E9"/>
<path d="M238.113 59.5928C241.693 59.8426 244.489 61.4209 246.373 64.5068C247.29 65.9935 247.771 67.708 247.76 69.4547C247.76 70.7038 246.977 71.2945 246.022 71.3225C245.109 71.3489 244.242 70.6333 244.244 69.4341C244.244 66.4378 241.94 63.7442 238.965 63.2225C238.61 63.1376 238.245 63.1 237.879 63.1108C237.641 63.1218 237.402 63.084 237.178 62.9999C236.954 62.9157 236.75 62.7869 236.577 62.6212C236.405 62.4556 236.268 62.2566 236.175 62.0363C236.081 61.8161 236.034 61.5792 236.035 61.34C236.051 60.4142 236.641 59.6104 237.893 59.5928H238.113Z" fill="white"/>
<path d="M144.313 97.2824C143.995 97.0688 144.046 96.695 143.955 96.396C143.423 94.5539 142.316 92.9299 140.797 91.7605C139.277 90.591 137.424 89.9372 135.507 89.8943C134.38 89.873 133.256 89.873 132.13 89.8623H126.127C125.131 89.8623 124.133 89.8623 123.137 89.8943C121.441 89.9451 120.152 91.184 120.149 92.8768C120.131 102.954 120.131 113.03 120.149 123.107C120.145 123.494 120.219 123.878 120.365 124.235C120.512 124.593 120.728 124.919 121.001 125.192C121.275 125.465 121.6 125.682 121.958 125.828C122.316 125.974 122.699 126.048 123.086 126.044C127.342 126.071 131.601 126.119 135.854 126.018C139.563 125.932 142.866 123.227 143.934 119.65C144.035 119.316 143.995 118.915 144.318 118.664L144.313 97.2824Z" fill="#E2E0E0"/>
<path d="M55.2087 78.0841C59.4247 62.3067 69.4295 52.4034 85.3244 48.5452C86.7849 48.19 88.2855 48.0111 89.77 47.7441H96.7629C97.7242 48.2488 98.8109 48.1126 99.8308 48.3235C114.57 51.3514 124.574 59.9624 129.914 73.9749C131.864 79.08 132.285 84.4415 132.133 89.8617H126.131C126.104 87.9046 126.198 85.9448 125.989 83.9876C124.793 72.7573 119.349 64.1971 109.755 58.2989C104.682 55.1856 99.0912 53.8132 93.1664 53.6984C91.2492 53.8479 89.3241 53.9173 87.4284 54.2938C76.3049 56.5046 68.3294 62.7873 63.3604 72.9255C60.7411 78.2657 60.0362 83.9903 60.2097 89.8644H54.2074C54.1434 85.902 54.1754 81.945 55.2087 78.0841Z" fill="#DDDDDD"/>
<path d="M60.2058 89.8623H54.2035C52.6148 89.9878 51.0127 89.7582 49.424 90.0465C45.2401 90.8102 42.084 94.3801 42.044 98.6335C41.9852 104.864 41.9852 111.088 42.044 117.308C42.0974 122.079 46.0277 125.93 50.8098 126.044C51.9419 126.071 53.074 126.068 54.2035 126.079H60.2058C61.1697 126.079 62.1336 126.079 63.0948 126.05C64.9051 126.012 66.1867 124.773 66.1894 122.974C66.2018 112.972 66.2018 102.969 66.1894 92.9649C66.1894 91.1653 64.9051 89.9264 63.0975 89.8917C62.1336 89.873 61.1697 89.8703 60.2058 89.8623Z" fill="#E9E8E8"/>
<path d="M54.2038 126.079H60.2061C60.2061 126.979 60.2061 127.876 60.2061 128.776C60.2328 134.137 64.1151 138.022 69.4766 138.036C74.24 138.049 79.0007 138.036 83.7615 138.054C84.413 138.054 84.7254 137.889 85.0057 137.269C86.5036 133.985 89.7958 131.929 93.1654 132.079C98.041 131.972 102.158 136.084 102.158 141.034C102.158 145.984 98.0436 150.094 93.1654 149.992C89.8038 150.144 86.5063 148.083 85.011 144.81C84.728 144.19 84.429 144.009 83.7748 144.009C78.8512 144.038 73.9276 144.051 69.0067 144.009C65.894 143.966 62.8716 142.957 60.3577 141.121C57.8439 139.285 55.963 136.713 54.9755 133.761C54.1211 131.254 54.2092 128.669 54.2038 126.079Z" fill="#DDDDDD"/>
<path fill-rule="evenodd" clip-rule="evenodd" d="M180.112 64.2121C183.827 60.0961 186.09 54.643 186.09 48.6615C186.09 35.8401 175.696 25.4463 162.874 25.4463C150.053 25.4463 139.659 35.8401 139.659 48.6615C139.659 61.4829 150.053 71.8767 162.874 71.8767C166.026 71.8767 169.03 71.2488 171.77 70.1114C171.808 70.1344 171.849 70.1559 171.891 70.1757L179.101 73.5689C180.067 74.0235 181.158 73.2436 181.04 72.1825L180.192 64.5478C180.179 64.429 180.151 64.3167 180.112 64.2121Z" fill="#DDDDDD"/>
<path d="M159.952 51.4421C159.952 50.67 159.929 49.8696 159.952 49.082C159.965 48.3076 160.216 47.556 160.671 46.9296C161.127 46.3032 161.764 45.8325 162.497 45.5817C162.816 45.4633 163.148 45.3758 163.47 45.2625C164.5 44.9118 165.371 44.2043 165.925 43.2679C166.479 42.3315 166.68 41.2279 166.492 40.1562C166.29 39.0709 165.708 38.0931 164.85 37.399C163.991 36.7049 162.913 36.3401 161.81 36.3702C160.726 36.4087 159.691 36.8348 158.895 37.5711C158.098 38.3074 157.592 39.305 157.468 40.3827C157.429 40.689 157.381 40.9927 157.316 41.2938C157.072 42.434 156.23 43.0543 155.095 42.9385C154.595 42.892 154.131 42.6552 153.8 42.2768C153.469 41.8985 153.296 41.4074 153.317 40.9052C153.43 37.531 154.894 34.8646 157.906 33.3178C164.098 30.1315 170.96 34.6355 170.643 41.5975C170.494 44.8559 168.144 47.9881 164.963 49.0614C164.276 49.293 163.99 49.5761 164.036 50.3483C164.108 51.509 164.077 52.6646 164.036 53.8383C164.003 55.3002 163.112 56.273 161.908 56.2216C160.703 56.1701 159.954 55.2564 159.934 53.81C159.934 53.0224 159.934 52.2348 159.934 51.4473L159.952 51.4421Z" fill="#F7F7F7"/>
<path d="M164.036 62.3123C164.013 62.8453 163.787 63.3492 163.404 63.7206C163.021 64.0921 162.51 64.3028 161.977 64.3095C161.705 64.3118 161.434 64.2588 161.183 64.1536C160.932 64.0485 160.704 63.8933 160.515 63.6977C160.325 63.5021 160.177 63.2699 160.08 63.0154C159.983 62.7609 159.938 62.4893 159.949 62.2171C159.974 61.6881 160.202 61.1892 160.585 60.8239C160.969 60.4587 161.478 60.2553 162.008 60.2559C162.543 60.2802 163.049 60.5055 163.425 60.8868C163.801 61.268 164.019 61.7771 164.036 62.3123Z" fill="white"/>
<path fill-rule="evenodd" clip-rule="evenodd" d="M227.558 109.809C220.731 109.922 215.704 113.071 212.647 119.094C207.617 129.001 213.934 141.241 224.893 143.021C225.774 143.165 226.665 143.296 227.567 143.186C233.54 143.095 238.195 140.496 241.453 135.565C248.111 125.481 242.088 111.907 230.158 109.983C229.303 109.809 228.428 109.75 227.558 109.809ZM225.653 129.012C224.094 127.473 222.534 125.934 221 124.369C220.113 123.459 220.219 122.085 221.121 121.177C221.662 120.634 222.329 120.383 222.982 120.435C222.333 120.387 221.67 120.639 221.131 121.177C220.219 122.085 220.113 123.459 221.015 124.369C222.549 125.934 224.109 127.473 225.668 129.012C226.298 129.635 226.929 130.257 227.558 130.881C227.564 130.922 227.573 130.962 227.583 131.002C227.654 131.066 227.724 131.129 227.795 131.193C227.936 131.32 228.077 131.447 228.218 131.579C228.802 132.137 229.468 132.391 230.123 132.339C229.462 132.397 228.789 132.142 228.204 131.579C228.063 131.447 227.921 131.32 227.78 131.193C227.71 131.129 227.639 131.066 227.569 131.001C227.558 130.962 227.55 130.921 227.543 130.881C226.914 130.257 226.284 129.634 225.653 129.012ZM233.687 124.044C233.046 123.998 232.385 124.239 231.821 124.767C231.813 124.775 231.805 124.783 231.798 124.791C231.787 124.802 231.776 124.813 231.764 124.822C231.556 125.005 231.356 125.245 231.157 125.484C231.006 125.666 230.856 125.846 230.704 125.998C230.851 125.849 230.996 125.672 231.142 125.493C231.34 125.252 231.541 125.007 231.754 124.822C231.766 124.813 231.777 124.801 231.787 124.791C231.795 124.782 231.803 124.774 231.811 124.767C232.383 124.239 233.047 123.998 233.687 124.044ZM229.974 126.404C230.067 126.404 230.159 126.381 230.249 126.341C230.16 126.38 230.068 126.403 229.974 126.404Z" fill="#E9E8E8"/>
<path d="M234.849 121.596C233.9 120.648 232.567 120.589 231.601 121.493C230.566 122.464 229.559 123.468 228.54 124.456C228.496 124.545 228.454 124.636 228.409 124.725C228.233 124.882 228.051 125.032 227.88 125.193C227.272 125.771 226.703 126.764 226.053 126.821C225.403 126.878 224.844 125.792 224.216 125.242C224.194 125.225 224.178 125.204 224.158 125.187C223.115 124.209 221.735 124.215 220.771 125.206C219.868 126.143 219.891 127.555 220.852 128.536C221.995 129.7 223.149 130.854 224.315 131.999C225.359 133.025 226.697 133.015 227.761 131.999C227.973 131.8 228.185 131.613 228.396 131.421C228.407 131.381 228.415 131.341 228.422 131.3C230.607 129.133 232.81 126.986 234.965 124.789C235.867 123.878 235.761 122.505 234.849 121.596Z" fill="white"/>
<rect x="119" y="88" width="82" height="62" rx="10" fill="#F14635"/>
<path fill-rule="evenodd" clip-rule="evenodd" d="M160 97.9004C148.347 97.9004 138.9 107.347 138.9 119C138.9 130.654 148.347 140.1 160 140.1C171.653 140.1 181.1 130.654 181.1 119C181.1 107.347 171.653 97.9004 160 97.9004ZM142.46 119C142.46 109.313 150.313 101.46 160 101.46C169.687 101.46 177.54 109.313 177.54 119C177.54 122.682 176.406 126.098 174.468 128.92C172.285 126.467 168.635 124.611 164.618 123.772C167.087 122.11 168.711 119.107 168.711 115.72C168.711 110.571 164.951 106.3 160.18 106.3C155.41 106.3 151.649 110.571 151.649 115.72C151.649 119.05 153.22 122.008 155.618 123.687C151.501 124.467 147.722 126.318 145.448 128.796C143.561 125.998 142.46 122.628 142.46 119ZM155.21 115.72C155.21 112.426 157.498 109.86 160.181 109.86C162.863 109.86 165.152 112.426 165.152 115.72C165.152 119.014 162.863 121.58 160.181 121.58C157.498 121.58 155.21 119.014 155.21 115.72ZM160 136.54C155.237 136.54 150.918 134.642 147.757 131.561C148.792 130.255 150.553 129.083 152.682 128.232C154.847 127.367 157.383 126.839 159.902 126.839C162.462 126.839 165.034 127.384 167.217 128.271C169.365 129.143 171.126 130.342 172.131 131.669C168.98 134.687 164.707 136.54 160 136.54Z" fill="white"/>
</svg>
