<svg width="760" height="160" viewBox="0 0 760 160" fill="none" xmlns="http://www.w3.org/2000/svg">
<path d="M0 32.9412C0 14.7483 14.7483 0 32.9412 0H127.059C145.252 0 160 14.7483 160 32.9412V127.059C160 145.252 145.252 160 127.059 160H32.9412C14.7483 160 0 145.252 0 127.059V32.9412Z" fill="#F14635"/>
<path fill-rule="evenodd" clip-rule="evenodd" d="M80.0026 27C109.199 27 132.878 50.3872 133 79.2857V79.7401C132.947 92.5885 128.219 104.343 120.429 113.442C120.146 113.3 119.631 112.836 118.697 111.439C117.731 110.035 109.398 97.2105 109.398 82.5122C109.398 79.6276 113.556 75.1215 117.235 71.1661L117.314 71.0811C120.035 68.1366 122.6 65.3614 123.55 63.1762C124.772 60.3289 123.917 58.3409 122.565 57.667C121.341 57.0681 119.503 57.505 118.214 59.7954C116.098 63.5019 115.42 64.1945 112.333 66.6747C109.296 69.1537 104.467 71.649 104.467 68.4189C104.467 67.241 105.694 65.0574 106.899 62.9109L106.9 62.9107C107.479 61.8786 108.054 60.8551 108.485 59.9561C109.842 57.1567 108.38 55.1301 105.578 55.1301C100.076 55.1301 96.4244 62.1387 96.4244 64.5665C96.4244 65.7334 96.6967 66.419 96.9793 67.1307C97.2843 67.8987 97.6013 68.6972 97.6013 70.1636C97.6013 73.0102 91.5648 76.7024 85.8786 76.7024C80.1553 76.7024 76.9454 75.4913 75.7462 72.0342L75.3659 70.9093L75.3027 70.7246L75.3026 70.7244C73.9864 66.8772 73.0228 64.0609 71.365 61.1199C70.4892 59.5729 69.1482 58.4905 67.9723 57.5413L67.8972 57.4807C66.3371 56.269 65.528 55.1534 65.3592 54.3214C65.2036 53.496 65.1194 51.9403 67.7863 48.3544C70.4472 44.7889 70.8202 42.0953 69.4886 40.7055C69.0057 40.211 68.183 39.8943 67.1264 39.8943C65.2574 39.8943 62.6605 40.8845 59.9841 43.6047C56.7357 46.9332 57.4635 50.1304 57.9386 52.2179L57.9387 52.218C58.0721 52.804 58.1856 53.3027 58.1856 53.6922C58.1856 55.4678 57.4234 56.4722 54.9267 58.8878C52.4118 61.3143 51.5438 63.3947 51.2562 71.7557C51.146 76.0634 50.3873 78.5434 49.7062 80.7422C49.1177 82.6696 48.5765 84.4813 48.5473 87.0994C48.5007 90.0004 48.9836 91.87 49.5471 94.0273C50.1003 96.0211 50.688 98.3059 51.0645 102.127C51.7132 108.536 51.4148 113.867 50.0758 119.428L50.0079 119.796L49.9938 119.852C49.7738 120.739 49.5124 121.792 49.1616 122.192C35.7475 112.664 27 97.1036 27 79.5143C27 50.5139 50.7291 27 80.0026 27ZM82.4701 83.8156C79.8313 83.4002 77.8881 83.7832 76.5201 84.9399C72.9889 87.9472 73.0493 96.328 73.12 106.048L73.1376 108.8C73.1788 118.436 73.2329 126.768 75.4827 130.43C76.2001 131.599 77.5554 132.454 79.3582 132.966C79.4904 132.97 79.6225 132.974 79.7546 132.979C80.0888 132.991 80.4234 133.003 80.762 133.003C85.223 133.003 89.5542 132.451 93.6977 131.431C95.4103 130.605 96.6506 129.614 97.0763 128.581C97.3316 127.911 97.4716 126.691 97.4716 125.102C97.4716 118.807 95.6232 106.8 94.7096 100.865L94.6825 100.689L94.2207 97.6142L94.1335 97.0082L94.1293 96.979C93.3555 91.5261 92.4807 85.3609 82.4701 83.8156ZM65.4356 122.64C65.1701 114.973 63.8482 104.861 61.7923 104.977C59.5761 105.113 58.7332 116.649 59.7035 124.35C60.0214 126.801 60.5218 128.672 61.1764 129.861C62.1574 130.259 63.153 130.625 64.1662 130.963C65.0614 130.174 65.622 127.979 65.4356 122.64ZM113.338 120.084C113.818 117.643 108.026 103.821 104.794 105.382C102.314 106.612 103.276 120.735 105.838 125.237C106.105 125.689 106.652 125.761 107.268 125.657C109.201 124.492 111.049 123.198 112.806 121.787C113.029 121.329 113.21 120.787 113.338 120.084Z" fill="white"/>
<path d="M267.139 15.9551V87.0488H250V15.9551H267.139ZM309.57 15.9551L282.031 51.9902L265.918 69.6172L262.793 53.8945L273.096 38.2695L288.428 15.9551H309.57ZM289.307 87.0488L270.947 55.0176L284.277 45.2031L309.57 87.0488H289.307Z" fill="black"/>
<path d="M340.625 73.7676V51.9902C340.625 50.4928 340.413 49.207 339.99 48.1328C339.567 47.0586 338.9 46.2285 337.988 45.6426C337.077 45.0241 335.856 44.7148 334.326 44.7148C333.089 44.7148 332.031 44.9264 331.152 45.3496C330.273 45.7728 329.606 46.4076 329.15 47.2539C328.695 48.1003 328.467 49.1745 328.467 50.4766H312.012C312.012 48.0352 312.549 45.7728 313.623 43.6895C314.73 41.5736 316.292 39.7344 318.311 38.1719C320.361 36.6094 322.803 35.4049 325.635 34.5586C328.499 33.6797 331.689 33.2402 335.205 33.2402C339.404 33.2402 343.148 33.9401 346.436 35.3398C349.756 36.7396 352.376 38.8392 354.297 41.6387C356.217 44.4056 357.178 47.8887 357.178 52.0879V73.7188C357.178 77.1693 357.373 79.7897 357.764 81.5801C358.154 83.3379 358.708 84.8841 359.424 86.2188V87.0488H342.92C342.139 85.4212 341.553 83.4355 341.162 81.0918C340.804 78.7155 340.625 76.2741 340.625 73.7676ZM342.627 54.7734L342.725 63.5625H335.449C333.919 63.5625 332.617 63.7741 331.543 64.1973C330.501 64.6204 329.655 65.2064 329.004 65.9551C328.385 66.6712 327.93 67.485 327.637 68.3965C327.376 69.3079 327.246 70.2682 327.246 71.2773C327.246 72.2539 327.474 73.1328 327.93 73.9141C328.418 74.6628 329.069 75.2487 329.883 75.6719C330.697 76.0951 331.608 76.3066 332.617 76.3066C334.44 76.3066 335.986 75.9648 337.256 75.2812C338.558 74.5651 339.551 73.7025 340.234 72.6934C340.918 71.6842 341.26 70.7402 341.26 69.8613L344.873 76.5996C344.222 77.9017 343.473 79.2201 342.627 80.5547C341.813 81.8893 340.788 83.1263 339.551 84.2656C338.346 85.3724 336.865 86.2839 335.107 87C333.35 87.6836 331.217 88.0254 328.711 88.0254C325.456 88.0254 322.461 87.3581 319.727 86.0234C317.025 84.6888 314.86 82.8333 313.232 80.457C311.605 78.0482 310.791 75.2812 310.791 72.1562C310.791 69.4219 311.279 66.9805 312.256 64.832C313.265 62.6836 314.779 60.8607 316.797 59.3633C318.815 57.8659 321.387 56.7266 324.512 55.9453C327.637 55.1641 331.315 54.7734 335.547 54.7734H342.627Z" fill="black"/>
<path d="M393.994 72.2051C393.994 71.2936 393.685 70.5124 393.066 69.8613C392.48 69.1777 391.439 68.5592 389.941 68.0059C388.444 67.4199 386.344 66.834 383.643 66.248C381.071 65.6947 378.646 64.9622 376.367 64.0508C374.121 63.1393 372.152 62.0326 370.459 60.7305C368.766 59.4284 367.432 57.8822 366.455 56.0918C365.511 54.3014 365.039 52.2507 365.039 49.9395C365.039 47.6934 365.511 45.5775 366.455 43.5918C367.432 41.5736 368.848 39.7995 370.703 38.2695C372.591 36.707 374.886 35.4863 377.588 34.6074C380.29 33.696 383.366 33.2402 386.816 33.2402C391.569 33.2402 395.671 33.9727 399.121 35.4375C402.572 36.8698 405.225 38.888 407.08 41.4922C408.968 44.0638 409.912 47.0423 409.912 50.4277H393.457C393.457 49.0931 393.229 47.9538 392.773 47.0098C392.35 46.0658 391.65 45.3496 390.674 44.8613C389.697 44.3405 388.395 44.0801 386.768 44.0801C385.628 44.0801 384.587 44.2917 383.643 44.7148C382.731 45.138 381.999 45.724 381.445 46.4727C380.892 47.2214 380.615 48.1003 380.615 49.1094C380.615 49.8255 380.778 50.4766 381.104 51.0625C381.462 51.6159 381.999 52.1367 382.715 52.625C383.431 53.0807 384.342 53.5039 385.449 53.8945C386.556 54.2526 387.891 54.5781 389.453 54.8711C393.001 55.5221 396.322 56.4499 399.414 57.6543C402.507 58.8587 405.013 60.5677 406.934 62.7812C408.887 64.9948 409.863 67.9733 409.863 71.7168C409.863 74.0605 409.326 76.2253 408.252 78.2109C407.178 80.1641 405.632 81.8893 403.613 83.3867C401.595 84.8516 399.17 85.9909 396.338 86.8047C393.506 87.6185 390.316 88.0254 386.768 88.0254C381.722 88.0254 377.458 87.1302 373.975 85.3398C370.492 83.5169 367.855 81.2383 366.064 78.5039C364.307 75.737 363.428 72.9375 363.428 70.1055H378.76C378.825 71.7331 379.215 73.0677 379.932 74.1094C380.68 75.151 381.673 75.916 382.91 76.4043C384.147 76.8926 385.579 77.1367 387.207 77.1367C388.704 77.1367 389.941 76.9251 390.918 76.502C391.927 76.0788 392.692 75.5091 393.213 74.793C393.734 74.0443 393.994 73.1816 393.994 72.2051Z" fill="black"/>
<path d="M434.18 44.373V107.361H417.725V34.2168H433.057L434.18 44.373ZM466.602 59.998V61.0234C466.602 64.8646 466.162 68.429 465.283 71.7168C464.404 75.0046 463.102 77.8691 461.377 80.3105C459.652 82.752 457.503 84.6562 454.932 86.0234C452.393 87.3581 449.447 88.0254 446.094 88.0254C442.936 88.0254 440.218 87.3255 437.939 85.9258C435.661 84.526 433.757 82.5892 432.227 80.1152C430.697 77.6413 429.46 74.8092 428.516 71.6191C427.572 68.429 426.823 65.0599 426.27 61.5117V60.1934C426.823 56.3848 427.572 52.8529 428.516 49.5977C429.46 46.3099 430.697 43.4453 432.227 41.0039C433.757 38.5625 435.645 36.6582 437.891 35.291C440.169 33.9238 442.887 33.2402 446.045 33.2402C449.398 33.2402 452.344 33.875 454.883 35.1445C457.454 36.4141 459.603 38.237 461.328 40.6133C463.086 42.957 464.404 45.7728 465.283 49.0605C466.162 52.3483 466.602 55.9941 466.602 59.998ZM450.146 61.0234V59.998C450.146 57.9473 450 56.0755 449.707 54.3828C449.414 52.6576 448.942 51.1602 448.291 49.8906C447.673 48.6211 446.842 47.6445 445.801 46.9609C444.759 46.2773 443.473 45.9355 441.943 45.9355C440.186 45.9355 438.704 46.2122 437.5 46.7656C436.328 47.2865 435.384 48.1003 434.668 49.207C433.984 50.2812 433.496 51.6322 433.203 53.2598C432.943 54.8548 432.829 56.7266 432.861 58.875V62.8789C432.796 65.3529 433.04 67.5339 433.594 69.4219C434.147 71.2773 435.107 72.7259 436.475 73.7676C437.842 74.8092 439.697 75.3301 442.041 75.3301C443.604 75.3301 444.906 74.972 445.947 74.2559C446.989 73.5072 447.819 72.4818 448.438 71.1797C449.056 69.8451 449.495 68.3151 449.756 66.5898C450.016 64.8646 450.146 63.0091 450.146 61.0234Z" fill="black"/>
<path d="M491.309 34.2168V87.0488H474.805V34.2168H491.309ZM473.828 20.5938C473.828 18.25 474.674 16.3294 476.367 14.832C478.06 13.3346 480.257 12.5859 482.959 12.5859C485.661 12.5859 487.858 13.3346 489.551 14.832C491.243 16.3294 492.09 18.25 492.09 20.5938C492.09 22.9375 491.243 24.8581 489.551 26.3555C487.858 27.8529 485.661 28.6016 482.959 28.6016C480.257 28.6016 478.06 27.8529 476.367 26.3555C474.674 24.8581 473.828 22.9375 473.828 20.5938Z" fill="black"/>
<path d="M502.539 79.334C502.539 76.9902 503.385 75.0371 505.078 73.4746C506.771 71.8796 508.952 71.082 511.621 71.082C514.323 71.082 516.504 71.8796 518.164 73.4746C519.857 75.0371 520.703 76.9902 520.703 79.334C520.703 81.6777 519.857 83.6471 518.164 85.2422C516.504 86.8047 514.323 87.5859 511.621 87.5859C508.952 87.5859 506.771 86.8047 505.078 85.2422C503.385 83.6471 502.539 81.6777 502.539 79.334Z" fill="black"/>
<path d="M548.34 12V87.0488H531.885V12H548.34ZM582.129 34.2168L559.18 61.1211L547.168 73.1328L539.99 62.6836L550 49.6465L562.402 34.2168H582.129ZM564.502 87.0488L550.391 62.9766L562.549 54.334L583.35 87.0488H564.502Z" fill="black"/>
<path d="M629.883 74.3535V87.0488H588.965V74.3535H629.883ZM629.395 43.1035L596.338 87.0488H585.059V77.8691L618.066 34.2168H629.395V43.1035ZM623.975 34.2168V46.9121H586.035V34.2168H623.975Z" fill="black"/>
<path d="M263.271 134.039H266.934C266.816 135.436 266.426 136.681 265.762 137.774C265.098 138.858 264.165 139.713 262.964 140.338C261.763 140.963 260.303 141.275 258.584 141.275C257.266 141.275 256.079 141.041 255.024 140.572C253.97 140.094 253.066 139.42 252.314 138.551C251.562 137.672 250.986 136.612 250.586 135.372C250.195 134.132 250 132.745 250 131.212V129.439C250 127.906 250.2 126.52 250.601 125.279C251.011 124.039 251.597 122.979 252.358 122.101C253.12 121.212 254.033 120.533 255.098 120.064C256.172 119.596 257.378 119.361 258.716 119.361C260.415 119.361 261.851 119.674 263.022 120.299C264.194 120.924 265.103 121.788 265.747 122.892C266.401 123.995 266.802 125.26 266.948 126.686H263.286C263.188 125.768 262.974 124.981 262.642 124.327C262.319 123.673 261.841 123.175 261.206 122.833C260.571 122.481 259.741 122.306 258.716 122.306C257.876 122.306 257.144 122.462 256.519 122.774C255.894 123.087 255.371 123.546 254.951 124.151C254.531 124.757 254.214 125.504 253.999 126.393C253.794 127.271 253.691 128.277 253.691 129.41V131.212C253.691 132.286 253.784 133.263 253.97 134.142C254.165 135.011 254.458 135.758 254.849 136.383C255.249 137.008 255.757 137.491 256.372 137.833C256.987 138.175 257.725 138.346 258.584 138.346C259.629 138.346 260.474 138.18 261.118 137.848C261.772 137.516 262.266 137.032 262.598 136.397C262.939 135.753 263.164 134.967 263.271 134.039Z" fill="black"/>
<path d="M274.521 139.254L278.828 125.133H282.607L276.25 143.399C276.104 143.79 275.913 144.215 275.679 144.674C275.444 145.133 275.137 145.567 274.756 145.978C274.385 146.397 273.921 146.734 273.364 146.988C272.808 147.252 272.134 147.384 271.343 147.384C271.03 147.384 270.728 147.354 270.435 147.296C270.151 147.247 269.883 147.193 269.629 147.135L269.614 144.439C269.712 144.449 269.829 144.459 269.966 144.469C270.112 144.479 270.229 144.483 270.317 144.483C270.903 144.483 271.392 144.41 271.782 144.264C272.173 144.127 272.49 143.902 272.734 143.59C272.988 143.277 273.203 142.857 273.379 142.33L274.521 139.254ZM272.09 125.133L275.854 136.998L276.484 140.719L274.038 141.349L268.281 125.133H272.09Z" fill="black"/>
<path d="M295.264 125.133V127.945H287.441V125.133H295.264ZM288.276 125.133V140.982H284.746V125.133H288.276ZM298.032 125.133V140.982H294.487V125.133H298.032Z" fill="black"/>
<path d="M308.755 141.275C307.583 141.275 306.523 141.085 305.576 140.704C304.639 140.313 303.838 139.771 303.174 139.078C302.52 138.385 302.017 137.569 301.665 136.632C301.313 135.694 301.138 134.684 301.138 133.6V133.014C301.138 131.773 301.318 130.65 301.68 129.645C302.041 128.639 302.544 127.779 303.188 127.066C303.833 126.344 304.595 125.792 305.474 125.411C306.353 125.03 307.305 124.84 308.33 124.84C309.463 124.84 310.454 125.03 311.304 125.411C312.153 125.792 312.856 126.329 313.413 127.022C313.979 127.706 314.399 128.521 314.673 129.469C314.956 130.416 315.098 131.461 315.098 132.604V134.112H302.852V131.578H311.611V131.3C311.592 130.665 311.465 130.069 311.23 129.513C311.006 128.956 310.659 128.507 310.19 128.165C309.722 127.823 309.097 127.652 308.315 127.652C307.729 127.652 307.207 127.779 306.748 128.033C306.299 128.277 305.923 128.634 305.62 129.103C305.317 129.571 305.083 130.138 304.917 130.802C304.761 131.456 304.683 132.193 304.683 133.014V133.6C304.683 134.293 304.775 134.938 304.961 135.533C305.156 136.119 305.439 136.632 305.811 137.071C306.182 137.511 306.631 137.857 307.158 138.111C307.686 138.355 308.286 138.478 308.96 138.478C309.81 138.478 310.566 138.307 311.23 137.965C311.895 137.623 312.471 137.14 312.959 136.515L314.819 138.316C314.478 138.814 314.033 139.293 313.486 139.752C312.939 140.201 312.271 140.567 311.479 140.851C310.698 141.134 309.79 141.275 308.755 141.275Z" fill="black"/>
<path d="M321.396 128.18V147.076H317.866V125.133H321.118L321.396 128.18ZM331.724 132.911V133.219C331.724 134.371 331.587 135.44 331.313 136.427C331.05 137.403 330.654 138.258 330.127 138.99C329.609 139.713 328.97 140.274 328.208 140.675C327.446 141.075 326.567 141.275 325.571 141.275C324.585 141.275 323.721 141.095 322.979 140.733C322.246 140.362 321.626 139.84 321.118 139.166C320.61 138.492 320.2 137.701 319.888 136.793C319.585 135.875 319.37 134.869 319.243 133.775V132.589C319.37 131.427 319.585 130.372 319.888 129.425C320.2 128.478 320.61 127.662 321.118 126.979C321.626 126.295 322.246 125.768 322.979 125.396C323.711 125.025 324.565 124.84 325.542 124.84C326.538 124.84 327.422 125.035 328.193 125.426C328.965 125.807 329.614 126.354 330.142 127.066C330.669 127.77 331.064 128.619 331.328 129.615C331.592 130.602 331.724 131.7 331.724 132.911ZM328.193 133.219V132.911C328.193 132.179 328.125 131.5 327.988 130.875C327.852 130.24 327.637 129.684 327.344 129.205C327.051 128.727 326.675 128.355 326.216 128.092C325.767 127.818 325.225 127.682 324.59 127.682C323.965 127.682 323.428 127.789 322.979 128.004C322.529 128.209 322.153 128.497 321.851 128.868C321.548 129.239 321.313 129.674 321.147 130.172C320.981 130.66 320.864 131.192 320.796 131.769V134.61C320.913 135.313 321.113 135.958 321.396 136.544C321.68 137.13 322.08 137.599 322.598 137.95C323.125 138.292 323.799 138.463 324.619 138.463C325.254 138.463 325.796 138.326 326.245 138.053C326.694 137.779 327.061 137.403 327.344 136.925C327.637 136.437 327.852 135.875 327.988 135.24C328.125 134.605 328.193 133.932 328.193 133.219Z" fill="black"/>
<path d="M345.361 125.133V127.945H337.539V125.133H345.361ZM338.374 125.133V140.982H334.844V125.133H338.374ZM348.13 125.133V140.982H344.585V125.133H348.13Z" fill="black"/>
<path d="M355.41 128.18V147.076H351.88V125.133H355.132L355.41 128.18ZM365.737 132.911V133.219C365.737 134.371 365.601 135.44 365.327 136.427C365.063 137.403 364.668 138.258 364.141 138.99C363.623 139.713 362.983 140.274 362.222 140.675C361.46 141.075 360.581 141.275 359.585 141.275C358.599 141.275 357.734 141.095 356.992 140.733C356.26 140.362 355.64 139.84 355.132 139.166C354.624 138.492 354.214 137.701 353.901 136.793C353.599 135.875 353.384 134.869 353.257 133.775V132.589C353.384 131.427 353.599 130.372 353.901 129.425C354.214 128.478 354.624 127.662 355.132 126.979C355.64 126.295 356.26 125.768 356.992 125.396C357.725 125.025 358.579 124.84 359.556 124.84C360.552 124.84 361.436 125.035 362.207 125.426C362.979 125.807 363.628 126.354 364.155 127.066C364.683 127.77 365.078 128.619 365.342 129.615C365.605 130.602 365.737 131.7 365.737 132.911ZM362.207 133.219V132.911C362.207 132.179 362.139 131.5 362.002 130.875C361.865 130.24 361.65 129.684 361.357 129.205C361.064 128.727 360.688 128.355 360.229 128.092C359.78 127.818 359.238 127.682 358.604 127.682C357.979 127.682 357.441 127.789 356.992 128.004C356.543 128.209 356.167 128.497 355.864 128.868C355.562 129.239 355.327 129.674 355.161 130.172C354.995 130.66 354.878 131.192 354.81 131.769V134.61C354.927 135.313 355.127 135.958 355.41 136.544C355.693 137.13 356.094 137.599 356.611 137.95C357.139 138.292 357.812 138.463 358.633 138.463C359.268 138.463 359.81 138.326 360.259 138.053C360.708 137.779 361.074 137.403 361.357 136.925C361.65 136.437 361.865 135.875 362.002 135.24C362.139 134.605 362.207 133.932 362.207 133.219Z" fill="black"/>
<path d="M372.388 135.826L378.613 125.133H382.144V140.982H378.613V130.274L372.388 140.982H368.857V125.133H372.388V135.826Z" fill="black"/>
<path d="M396.528 125.133V127.945H388.794V125.133H396.528ZM399.297 125.133V140.982H395.767V125.133H399.297ZM387.93 125.133H391.416L390.991 132.97C390.933 134.132 390.815 135.157 390.64 136.046C390.474 136.925 390.249 137.682 389.966 138.316C389.683 138.941 389.336 139.449 388.926 139.84C388.516 140.23 388.037 140.519 387.49 140.704C386.943 140.89 386.328 140.982 385.645 140.982H384.546L384.531 138.082L385.088 138.038C385.449 138.009 385.762 137.916 386.025 137.76C386.289 137.594 386.514 137.359 386.699 137.057C386.895 136.754 387.051 136.363 387.168 135.885C387.295 135.406 387.393 134.84 387.461 134.186C387.539 133.531 387.598 132.77 387.637 131.9L387.93 125.133Z" fill="black"/>
<path d="M402.373 133.233V132.896C402.373 131.754 402.539 130.694 402.871 129.718C403.203 128.731 403.682 127.877 404.307 127.154C404.941 126.422 405.713 125.855 406.621 125.455C407.539 125.045 408.574 124.84 409.727 124.84C410.889 124.84 411.924 125.045 412.832 125.455C413.75 125.855 414.526 126.422 415.161 127.154C415.796 127.877 416.279 128.731 416.611 129.718C416.943 130.694 417.109 131.754 417.109 132.896V133.233C417.109 134.376 416.943 135.436 416.611 136.412C416.279 137.389 415.796 138.243 415.161 138.976C414.526 139.698 413.755 140.265 412.847 140.675C411.938 141.075 410.908 141.275 409.756 141.275C408.594 141.275 407.554 141.075 406.636 140.675C405.728 140.265 404.956 139.698 404.321 138.976C403.687 138.243 403.203 137.389 402.871 136.412C402.539 135.436 402.373 134.376 402.373 133.233ZM405.903 132.896V133.233C405.903 133.946 405.977 134.62 406.123 135.255C406.27 135.89 406.499 136.446 406.812 136.925C407.124 137.403 407.524 137.779 408.013 138.053C408.501 138.326 409.082 138.463 409.756 138.463C410.41 138.463 410.977 138.326 411.455 138.053C411.943 137.779 412.344 137.403 412.656 136.925C412.969 136.446 413.198 135.89 413.345 135.255C413.501 134.62 413.579 133.946 413.579 133.233V132.896C413.579 132.193 413.501 131.529 413.345 130.904C413.198 130.27 412.964 129.708 412.642 129.22C412.329 128.731 411.929 128.351 411.44 128.077C410.962 127.794 410.391 127.652 409.727 127.652C409.062 127.652 408.486 127.794 407.998 128.077C407.52 128.351 407.124 128.731 406.812 129.22C406.499 129.708 406.27 130.27 406.123 130.904C405.977 131.529 405.903 132.193 405.903 132.896Z" fill="black"/>
<path d="M425.005 134.581L418.677 125.133H423.013L426.704 131.373H429.795L429.341 134.581H425.005ZM426.792 134.068L422.734 140.982H418.398L424.141 132.062L426.792 134.068ZM431.919 125.133V140.982H428.403V125.133H431.919ZM441.689 125.133L435.361 134.581H431.011L430.542 131.373H433.647L437.339 125.133H441.689ZM437.617 140.982L433.545 134.068L436.284 132.062L441.997 140.982H437.617Z" fill="black"/>
<path d="M450.933 141.275C449.761 141.275 448.701 141.085 447.754 140.704C446.816 140.313 446.016 139.771 445.352 139.078C444.697 138.385 444.194 137.569 443.843 136.632C443.491 135.694 443.315 134.684 443.315 133.6V133.014C443.315 131.773 443.496 130.65 443.857 129.645C444.219 128.639 444.722 127.779 445.366 127.066C446.011 126.344 446.772 125.792 447.651 125.411C448.53 125.03 449.482 124.84 450.508 124.84C451.641 124.84 452.632 125.03 453.481 125.411C454.331 125.792 455.034 126.329 455.591 127.022C456.157 127.706 456.577 128.521 456.851 129.469C457.134 130.416 457.275 131.461 457.275 132.604V134.112H445.029V131.578H453.789V131.3C453.77 130.665 453.643 130.069 453.408 129.513C453.184 128.956 452.837 128.507 452.368 128.165C451.899 127.823 451.274 127.652 450.493 127.652C449.907 127.652 449.385 127.779 448.926 128.033C448.477 128.277 448.101 128.634 447.798 129.103C447.495 129.571 447.261 130.138 447.095 130.802C446.938 131.456 446.86 132.193 446.86 133.014V133.6C446.86 134.293 446.953 134.938 447.139 135.533C447.334 136.119 447.617 136.632 447.988 137.071C448.359 137.511 448.809 137.857 449.336 138.111C449.863 138.355 450.464 138.478 451.138 138.478C451.987 138.478 452.744 138.307 453.408 137.965C454.072 137.623 454.648 137.14 455.137 136.515L456.997 138.316C456.655 138.814 456.211 139.293 455.664 139.752C455.117 140.201 454.448 140.567 453.657 140.851C452.876 141.134 451.968 141.275 450.933 141.275Z" fill="black"/>
<path d="M470.854 131.754V134.537H462.651V131.754H470.854ZM463.677 125.133V140.982H460.146V125.133H463.677ZM473.403 125.133V140.982H469.873V125.133H473.403Z" fill="black"/>
<path d="M480.815 135.826L487.041 125.133H490.571V140.982H487.041V130.274L480.815 140.982H477.285V125.133H480.815V135.826Z" fill="black"/>
<path d="M501.294 141.275C500.122 141.275 499.062 141.085 498.115 140.704C497.178 140.313 496.377 139.771 495.713 139.078C495.059 138.385 494.556 137.569 494.204 136.632C493.853 135.694 493.677 134.684 493.677 133.6V133.014C493.677 131.773 493.857 130.65 494.219 129.645C494.58 128.639 495.083 127.779 495.728 127.066C496.372 126.344 497.134 125.792 498.013 125.411C498.892 125.03 499.844 124.84 500.869 124.84C502.002 124.84 502.993 125.03 503.843 125.411C504.692 125.792 505.396 126.329 505.952 127.022C506.519 127.706 506.938 128.521 507.212 129.469C507.495 130.416 507.637 131.461 507.637 132.604V134.112H495.391V131.578H504.15V131.3C504.131 130.665 504.004 130.069 503.77 129.513C503.545 128.956 503.198 128.507 502.729 128.165C502.261 127.823 501.636 127.652 500.854 127.652C500.269 127.652 499.746 127.779 499.287 128.033C498.838 128.277 498.462 128.634 498.159 129.103C497.856 129.571 497.622 130.138 497.456 130.802C497.3 131.456 497.222 132.193 497.222 133.014V133.6C497.222 134.293 497.314 134.938 497.5 135.533C497.695 136.119 497.979 136.632 498.35 137.071C498.721 137.511 499.17 137.857 499.697 138.111C500.225 138.355 500.825 138.478 501.499 138.478C502.349 138.478 503.105 138.307 503.77 137.965C504.434 137.623 505.01 137.14 505.498 136.515L507.358 138.316C507.017 138.814 506.572 139.293 506.025 139.752C505.479 140.201 504.81 140.567 504.019 140.851C503.237 141.134 502.329 141.275 501.294 141.275Z" fill="black"/>
<path d="M544.434 132.794V134.889H535.571V132.794H544.434ZM534.971 125.792V124.576C534.971 123.57 535.176 122.682 535.586 121.91C536.006 121.129 536.592 120.519 537.344 120.079C538.096 119.64 538.984 119.42 540.01 119.42C541.055 119.42 541.948 119.64 542.69 120.079C543.442 120.519 544.023 121.129 544.434 121.91C544.844 122.682 545.049 123.57 545.049 124.576V125.792C545.049 126.798 544.844 127.687 544.434 128.458C544.033 129.229 543.457 129.835 542.705 130.274C541.963 130.714 541.074 130.934 540.039 130.934C539.004 130.934 538.105 130.714 537.344 130.274C536.592 129.835 536.006 129.229 535.586 128.458C535.176 127.687 534.971 126.798 534.971 125.792ZM537.432 124.576V125.792C537.432 126.388 537.524 126.915 537.71 127.374C537.896 127.833 538.184 128.194 538.574 128.458C538.965 128.722 539.453 128.854 540.039 128.854C540.615 128.854 541.094 128.722 541.475 128.458C541.855 128.194 542.139 127.833 542.324 127.374C542.51 126.915 542.603 126.388 542.603 125.792V124.576C542.603 123.99 542.505 123.468 542.31 123.009C542.124 122.55 541.841 122.188 541.46 121.925C541.079 121.651 540.596 121.515 540.01 121.515C539.434 121.515 538.95 121.651 538.56 121.925C538.179 122.188 537.896 122.55 537.71 123.009C537.524 123.468 537.432 123.99 537.432 124.576ZM532.92 119.654V140.982H529.038L521.699 125.704V140.982H518.154V119.654H522.036L529.39 134.962V119.654H532.92Z" fill="black"/>
<path d="M557.91 119.581V140.982H554.38V123.771L549.15 125.543V122.628L557.485 119.581H557.91Z" fill="black"/>
<path d="M580.703 134.2H575.635L575.605 131.71H579.766C580.449 131.71 581.011 131.642 581.45 131.505C581.899 131.368 582.231 131.163 582.446 130.89C582.661 130.606 582.769 130.265 582.769 129.864C582.769 129.532 582.705 129.244 582.578 129C582.451 128.746 582.256 128.541 581.992 128.385C581.738 128.219 581.416 128.102 581.025 128.033C580.645 127.955 580.2 127.916 579.692 127.916H576.807V140.982H573.276V125.133H579.692C580.708 125.133 581.621 125.221 582.432 125.396C583.252 125.572 583.95 125.841 584.526 126.202C585.103 126.563 585.542 127.022 585.845 127.579C586.157 128.126 586.313 128.771 586.313 129.513C586.313 130.001 586.206 130.46 585.991 130.89C585.786 131.319 585.479 131.7 585.068 132.032C584.658 132.364 584.155 132.638 583.56 132.853C582.964 133.058 582.28 133.185 581.509 133.233L580.703 134.2ZM580.703 140.982H574.609L576.016 138.199H580.703C581.328 138.199 581.846 138.121 582.256 137.965C582.666 137.809 582.969 137.584 583.164 137.291C583.369 136.988 583.472 136.632 583.472 136.222C583.472 135.802 583.374 135.44 583.179 135.138C582.983 134.835 582.681 134.605 582.271 134.449C581.87 134.283 581.348 134.2 580.703 134.2H576.675L576.704 131.71H581.494L582.505 132.677C583.511 132.745 584.346 132.96 585.01 133.321C585.674 133.683 586.172 134.137 586.504 134.684C586.836 135.23 587.002 135.826 587.002 136.471C587.002 137.213 586.86 137.867 586.577 138.434C586.304 139 585.894 139.474 585.347 139.854C584.81 140.226 584.15 140.509 583.369 140.704C582.588 140.89 581.699 140.982 580.703 140.982Z" fill="black"/>
<path d="M601.606 119.654V140.982H597.944V119.654H601.606ZM614.438 119.654L605.767 131.812H600.566L600.068 128.619H603.73L609.941 119.654H614.438ZM610.688 140.982L603.789 131.256L606.162 128.429L615.098 140.982H610.688Z" fill="black"/>
<path d="M625.791 137.804V130.245C625.791 129.679 625.688 129.19 625.483 128.78C625.278 128.37 624.966 128.053 624.546 127.828C624.136 127.604 623.618 127.491 622.993 127.491C622.417 127.491 621.919 127.589 621.499 127.784C621.079 127.979 620.752 128.243 620.518 128.575C620.283 128.907 620.166 129.283 620.166 129.703H616.65C616.65 129.078 616.802 128.473 617.104 127.887C617.407 127.301 617.847 126.778 618.423 126.319C618.999 125.86 619.688 125.499 620.488 125.235C621.289 124.972 622.188 124.84 623.184 124.84C624.375 124.84 625.43 125.04 626.348 125.44C627.275 125.841 628.003 126.446 628.53 127.257C629.067 128.058 629.336 129.063 629.336 130.274V137.32C629.336 138.043 629.385 138.692 629.482 139.269C629.59 139.835 629.741 140.328 629.937 140.748V140.982H626.318C626.152 140.602 626.021 140.118 625.923 139.532C625.835 138.937 625.791 138.36 625.791 137.804ZM626.304 131.344L626.333 133.526H623.799C623.145 133.526 622.568 133.59 622.07 133.717C621.572 133.834 621.157 134.01 620.825 134.244C620.493 134.479 620.244 134.762 620.078 135.094C619.912 135.426 619.829 135.802 619.829 136.222C619.829 136.642 619.927 137.027 620.122 137.379C620.317 137.721 620.601 137.989 620.972 138.185C621.353 138.38 621.812 138.478 622.349 138.478C623.071 138.478 623.701 138.331 624.238 138.038C624.785 137.735 625.215 137.369 625.527 136.939C625.84 136.5 626.006 136.085 626.025 135.694L627.168 137.262C627.051 137.662 626.851 138.092 626.567 138.551C626.284 139.01 625.913 139.449 625.454 139.869C625.005 140.279 624.463 140.616 623.828 140.88C623.203 141.144 622.48 141.275 621.66 141.275C620.625 141.275 619.702 141.07 618.892 140.66C618.081 140.24 617.446 139.679 616.987 138.976C616.528 138.263 616.299 137.457 616.299 136.559C616.299 135.719 616.455 134.977 616.768 134.332C617.09 133.678 617.559 133.131 618.174 132.691C618.799 132.252 619.561 131.92 620.459 131.695C621.357 131.461 622.383 131.344 623.535 131.344H626.304Z" fill="black"/>
<path d="M639.59 133.409H636.543V131.622H639.004C639.629 131.622 640.127 131.539 640.498 131.373C640.879 131.207 641.147 130.978 641.304 130.685C641.47 130.382 641.553 130.03 641.553 129.63C641.553 129.278 641.47 128.946 641.304 128.634C641.147 128.312 640.879 128.048 640.498 127.843C640.117 127.638 639.6 127.535 638.945 127.535C638.408 127.535 637.925 127.623 637.495 127.799C637.075 127.975 636.743 128.219 636.499 128.531C636.255 128.844 636.133 129.205 636.133 129.615H632.603C632.603 128.629 632.881 127.779 633.438 127.066C634.004 126.354 634.761 125.807 635.708 125.426C636.655 125.045 637.695 124.854 638.828 124.854C639.795 124.854 640.664 124.957 641.436 125.162C642.207 125.357 642.861 125.65 643.398 126.041C643.945 126.422 644.36 126.9 644.644 127.477C644.937 128.043 645.083 128.702 645.083 129.454C645.083 129.991 644.956 130.499 644.702 130.978C644.448 131.456 644.082 131.881 643.604 132.252C643.125 132.613 642.544 132.896 641.86 133.102C641.187 133.307 640.43 133.409 639.59 133.409ZM636.543 132.384H639.59C640.527 132.384 641.357 132.477 642.08 132.662C642.803 132.838 643.408 133.102 643.896 133.453C644.385 133.805 644.751 134.239 644.995 134.757C645.249 135.265 645.376 135.851 645.376 136.515C645.376 137.257 645.215 137.926 644.893 138.521C644.58 139.107 644.131 139.605 643.545 140.016C642.969 140.426 642.28 140.738 641.479 140.953C640.679 141.168 639.795 141.275 638.828 141.275C637.773 141.275 636.748 141.1 635.752 140.748C634.766 140.396 633.95 139.854 633.306 139.122C632.671 138.38 632.354 137.438 632.354 136.295H635.884C635.884 136.695 636.006 137.071 636.25 137.423C636.494 137.774 636.846 138.062 637.305 138.287C637.764 138.502 638.315 138.609 638.96 138.609C639.624 138.609 640.166 138.507 640.586 138.302C641.006 138.087 641.318 137.809 641.523 137.467C641.729 137.115 641.831 136.744 641.831 136.354C641.831 135.826 641.729 135.401 641.523 135.079C641.318 134.757 641.006 134.522 640.586 134.376C640.166 134.22 639.639 134.142 639.004 134.142H636.543V132.384Z" fill="black"/>
<path d="M657.314 137.804V130.245C657.314 129.679 657.212 129.19 657.007 128.78C656.802 128.37 656.489 128.053 656.069 127.828C655.659 127.604 655.142 127.491 654.517 127.491C653.94 127.491 653.442 127.589 653.022 127.784C652.603 127.979 652.275 128.243 652.041 128.575C651.807 128.907 651.689 129.283 651.689 129.703H648.174C648.174 129.078 648.325 128.473 648.628 127.887C648.931 127.301 649.37 126.778 649.946 126.319C650.522 125.86 651.211 125.499 652.012 125.235C652.812 124.972 653.711 124.84 654.707 124.84C655.898 124.84 656.953 125.04 657.871 125.44C658.799 125.841 659.526 126.446 660.054 127.257C660.591 128.058 660.859 129.063 660.859 130.274V137.32C660.859 138.043 660.908 138.692 661.006 139.269C661.113 139.835 661.265 140.328 661.46 140.748V140.982H657.842C657.676 140.602 657.544 140.118 657.446 139.532C657.358 138.937 657.314 138.36 657.314 137.804ZM657.827 131.344L657.856 133.526H655.322C654.668 133.526 654.092 133.59 653.594 133.717C653.096 133.834 652.681 134.01 652.349 134.244C652.017 134.479 651.768 134.762 651.602 135.094C651.436 135.426 651.353 135.802 651.353 136.222C651.353 136.642 651.45 137.027 651.646 137.379C651.841 137.721 652.124 137.989 652.495 138.185C652.876 138.38 653.335 138.478 653.872 138.478C654.595 138.478 655.225 138.331 655.762 138.038C656.309 137.735 656.738 137.369 657.051 136.939C657.363 136.5 657.529 136.085 657.549 135.694L658.691 137.262C658.574 137.662 658.374 138.092 658.091 138.551C657.808 139.01 657.437 139.449 656.978 139.869C656.528 140.279 655.986 140.616 655.352 140.88C654.727 141.144 654.004 141.275 653.184 141.275C652.148 141.275 651.226 141.07 650.415 140.66C649.604 140.24 648.97 139.679 648.511 138.976C648.052 138.263 647.822 137.457 647.822 136.559C647.822 135.719 647.979 134.977 648.291 134.332C648.613 133.678 649.082 133.131 649.697 132.691C650.322 132.252 651.084 131.92 651.982 131.695C652.881 131.461 653.906 131.344 655.059 131.344H657.827Z" fill="black"/>
<path d="M667.246 125.133L670.264 130.392L673.34 125.133H677.222L672.417 132.911L677.412 140.982H673.53L670.308 135.504L667.085 140.982H663.188L668.169 132.911L663.379 125.133H667.246Z" fill="black"/>
<path d="M685.82 138.463C686.396 138.463 686.914 138.351 687.373 138.126C687.842 137.892 688.218 137.569 688.501 137.159C688.794 136.749 688.955 136.275 688.984 135.738H692.31C692.29 136.764 691.987 137.696 691.401 138.536C690.815 139.376 690.039 140.045 689.072 140.543C688.105 141.031 687.036 141.275 685.864 141.275C684.653 141.275 683.599 141.07 682.7 140.66C681.802 140.24 681.055 139.664 680.459 138.932C679.863 138.199 679.414 137.354 679.111 136.397C678.818 135.44 678.672 134.415 678.672 133.321V132.809C678.672 131.715 678.818 130.689 679.111 129.732C679.414 128.766 679.863 127.916 680.459 127.184C681.055 126.451 681.802 125.88 682.7 125.47C683.599 125.05 684.648 124.84 685.85 124.84C687.119 124.84 688.232 125.094 689.189 125.602C690.146 126.1 690.898 126.798 691.445 127.696C692.002 128.585 692.29 129.62 692.31 130.802H688.984C688.955 130.216 688.809 129.688 688.545 129.22C688.291 128.741 687.93 128.36 687.461 128.077C687.002 127.794 686.45 127.652 685.806 127.652C685.093 127.652 684.502 127.799 684.033 128.092C683.564 128.375 683.198 128.766 682.935 129.264C682.671 129.752 682.48 130.304 682.363 130.919C682.256 131.524 682.202 132.154 682.202 132.809V133.321C682.202 133.976 682.256 134.61 682.363 135.226C682.471 135.841 682.656 136.393 682.92 136.881C683.193 137.359 683.564 137.745 684.033 138.038C684.502 138.321 685.098 138.463 685.82 138.463Z" fill="black"/>
<path d="M702.373 125.133V140.982H698.828V125.133H702.373ZM707.573 125.133V127.916H693.716V125.133H707.573Z" fill="black"/>
<path d="M718.633 137.804V130.245C718.633 129.679 718.53 129.19 718.325 128.78C718.12 128.37 717.808 128.053 717.388 127.828C716.978 127.604 716.46 127.491 715.835 127.491C715.259 127.491 714.761 127.589 714.341 127.784C713.921 127.979 713.594 128.243 713.359 128.575C713.125 128.907 713.008 129.283 713.008 129.703H709.492C709.492 129.078 709.644 128.473 709.946 127.887C710.249 127.301 710.688 126.778 711.265 126.319C711.841 125.86 712.529 125.499 713.33 125.235C714.131 124.972 715.029 124.84 716.025 124.84C717.217 124.84 718.271 125.04 719.189 125.44C720.117 125.841 720.845 126.446 721.372 127.257C721.909 128.058 722.178 129.063 722.178 130.274V137.32C722.178 138.043 722.227 138.692 722.324 139.269C722.432 139.835 722.583 140.328 722.778 140.748V140.982H719.16C718.994 140.602 718.862 140.118 718.765 139.532C718.677 138.937 718.633 138.36 718.633 137.804ZM719.146 131.344L719.175 133.526H716.641C715.986 133.526 715.41 133.59 714.912 133.717C714.414 133.834 713.999 134.01 713.667 134.244C713.335 134.479 713.086 134.762 712.92 135.094C712.754 135.426 712.671 135.802 712.671 136.222C712.671 136.642 712.769 137.027 712.964 137.379C713.159 137.721 713.442 137.989 713.813 138.185C714.194 138.38 714.653 138.478 715.19 138.478C715.913 138.478 716.543 138.331 717.08 138.038C717.627 137.735 718.057 137.369 718.369 136.939C718.682 136.5 718.848 136.085 718.867 135.694L720.01 137.262C719.893 137.662 719.692 138.092 719.409 138.551C719.126 139.01 718.755 139.449 718.296 139.869C717.847 140.279 717.305 140.616 716.67 140.88C716.045 141.144 715.322 141.275 714.502 141.275C713.467 141.275 712.544 141.07 711.733 140.66C710.923 140.24 710.288 139.679 709.829 138.976C709.37 138.263 709.141 137.457 709.141 136.559C709.141 135.719 709.297 134.977 709.609 134.332C709.932 133.678 710.4 133.131 711.016 132.691C711.641 132.252 712.402 131.92 713.301 131.695C714.199 131.461 715.225 131.344 716.377 131.344H719.146Z" fill="black"/>
<path d="M736.694 131.754V134.537H728.491V131.754H736.694ZM729.517 125.133V140.982H725.986V125.133H729.517ZM739.243 125.133V140.982H735.713V125.133H739.243Z" fill="black"/>
<path d="M749.995 141.275C748.823 141.275 747.764 141.085 746.816 140.704C745.879 140.313 745.078 139.771 744.414 139.078C743.76 138.385 743.257 137.569 742.905 136.632C742.554 135.694 742.378 134.684 742.378 133.6V133.014C742.378 131.773 742.559 130.65 742.92 129.645C743.281 128.639 743.784 127.779 744.429 127.066C745.073 126.344 745.835 125.792 746.714 125.411C747.593 125.03 748.545 124.84 749.57 124.84C750.703 124.84 751.694 125.03 752.544 125.411C753.394 125.792 754.097 126.329 754.653 127.022C755.22 127.706 755.64 128.521 755.913 129.469C756.196 130.416 756.338 131.461 756.338 132.604V134.112H744.092V131.578H752.852V131.3C752.832 130.665 752.705 130.069 752.471 129.513C752.246 128.956 751.899 128.507 751.431 128.165C750.962 127.823 750.337 127.652 749.556 127.652C748.97 127.652 748.447 127.779 747.988 128.033C747.539 128.277 747.163 128.634 746.86 129.103C746.558 129.571 746.323 130.138 746.157 130.802C746.001 131.456 745.923 132.193 745.923 133.014V133.6C745.923 134.293 746.016 134.938 746.201 135.533C746.396 136.119 746.68 136.632 747.051 137.071C747.422 137.511 747.871 137.857 748.398 138.111C748.926 138.355 749.526 138.478 750.2 138.478C751.05 138.478 751.807 138.307 752.471 137.965C753.135 137.623 753.711 137.14 754.199 136.515L756.06 138.316C755.718 138.814 755.273 139.293 754.727 139.752C754.18 140.201 753.511 140.567 752.72 140.851C751.938 141.134 751.03 141.275 749.995 141.275Z" fill="black"/>
</svg>
