<svg width="320" height="170" viewBox="0 0 320 170" fill="none" xmlns="http://www.w3.org/2000/svg">
<rect x="165" y="35" width="58" height="58" rx="8" fill="#E9E9E9"/>
<path d="M165 43C165 38.5817 168.582 35 173 35H215C219.418 35 223 38.5817 223 43V54H165V43Z" fill="#DDDDDD"/>
<rect x="205.5" y="27.5" width="9" height="15" rx="4.5" fill="#DDDDDD"/>
<rect x="205.5" y="27.5" width="9" height="15" rx="4.5" stroke="white" stroke-width="3"/>
<rect x="205.5" y="27.5" width="9" height="15" rx="4.5" stroke="white" stroke-width="3"/>
<rect x="172.5" y="27.5" width="9" height="15" rx="4.5" fill="#DDDDDD"/>
<rect x="172.5" y="27.5" width="9" height="15" rx="4.5" stroke="white" stroke-width="3"/>
<rect x="172.5" y="27.5" width="9" height="15" rx="4.5" stroke="white" stroke-width="3"/>
<rect x="74.6111" y="42.8963" width="58.7778" height="104.492" rx="10.4444" fill="#E9E9E9" stroke="#DDDDDD" stroke-width="5.22222"/>
<rect x="92.5713" y="50.9512" width="22.8571" height="6.09524" rx="3.04762" fill="white"/>
<rect x="208" y="102" width="58" height="44" rx="8" fill="#E9E9E9"/>
<rect x="234" y="112" width="6" height="24" rx="3" fill="white"/>
<rect x="234" y="112" width="6" height="24" rx="3" fill="white"/>
<rect x="225" y="127" width="6" height="24" rx="3" transform="rotate(-90 225 127)" fill="white"/>
<rect x="225" y="127" width="6" height="24" rx="3" transform="rotate(-90 225 127)" fill="white"/>
<rect x="119" y="88" width="82" height="62" rx="10" fill="#FFD300"/>
<path fill-rule="evenodd" clip-rule="evenodd" d="M143.674 101.591H178.326C179.937 101.591 181.25 102.905 181.25 104.522V125.661C181.25 127.276 179.937 128.591 178.326 128.591H166.062C165.131 128.591 164.375 127.837 164.375 126.903C164.375 125.97 165.131 125.216 166.062 125.216H177.875V104.966H144.125V106.841C144.125 107.774 143.369 108.528 142.438 108.528C141.506 108.528 140.75 107.774 140.75 106.841V104.522C140.75 102.905 142.063 101.591 143.674 101.591ZM166.062 130.091H171.125C172.056 130.091 172.812 130.845 172.812 131.778C172.812 132.712 172.056 133.466 171.125 133.466H166.062C165.131 133.466 164.375 132.712 164.375 131.778C164.375 130.845 165.131 130.091 166.062 130.091ZM157.815 110.591H144.685C142.516 110.591 140.75 112.462 140.75 114.766V133.416C140.75 135.719 142.516 137.591 144.685 137.591H157.815C159.984 137.591 161.75 135.719 161.75 133.416V114.766C161.75 112.462 159.984 110.591 157.815 110.591ZM158.519 133.416C158.519 133.85 158.196 134.216 157.815 134.216H144.685C144.302 134.216 143.981 133.85 143.981 133.416V114.766C143.981 114.332 144.302 113.966 144.685 113.966H157.815C158.196 113.966 158.519 114.332 158.519 114.766V133.416ZM148.55 129.341H153.95C154.944 129.341 155.75 130.095 155.75 131.028C155.75 131.962 154.944 132.716 153.95 132.716H148.55C147.556 132.716 146.75 131.962 146.75 131.028C146.75 130.095 147.556 129.341 148.55 129.341Z" fill="white"/>
<path d="M177.875 125.216V125.316H177.975V125.216H177.875ZM177.875 104.966H177.975V104.866H177.875V104.966ZM144.125 104.966V104.866H144.025V104.966H144.125ZM178.326 101.491H143.674V101.691H178.326V101.491ZM181.35 104.522C181.35 102.85 179.993 101.491 178.326 101.491V101.691C179.882 101.691 181.15 102.96 181.15 104.522H181.35ZM181.35 125.661V104.522H181.15V125.661H181.35ZM178.326 128.691C179.993 128.691 181.35 127.331 181.35 125.661H181.15C181.15 127.221 179.882 128.491 178.326 128.491V128.691ZM166.062 128.691H178.326V128.491H166.062V128.691ZM164.275 126.903C164.275 127.892 165.076 128.691 166.062 128.691V128.491C165.186 128.491 164.475 127.781 164.475 126.903H164.275ZM166.062 125.116C165.076 125.116 164.275 125.915 164.275 126.903H164.475C164.475 126.025 165.186 125.316 166.062 125.316V125.116ZM177.875 125.116H166.062V125.316H177.875V125.116ZM177.775 104.966V125.216H177.975V104.966H177.775ZM144.125 105.066H177.875V104.866H144.125V105.066ZM144.225 106.841V104.966H144.025V106.841H144.225ZM142.438 108.628C143.424 108.628 144.225 107.829 144.225 106.841H144.025C144.025 107.719 143.314 108.428 142.438 108.428V108.628ZM140.65 106.841C140.65 107.829 141.451 108.628 142.438 108.628V108.428C141.561 108.428 140.85 107.719 140.85 106.841H140.65ZM140.65 104.522V106.841H140.85V104.522H140.65ZM143.674 101.491C142.007 101.491 140.65 102.85 140.65 104.522H140.85C140.85 102.96 142.118 101.691 143.674 101.691V101.491ZM171.125 129.991H166.062V130.191H171.125V129.991ZM172.912 131.778C172.912 130.79 172.112 129.991 171.125 129.991V130.191C172.001 130.191 172.712 130.9 172.712 131.778H172.912ZM171.125 133.566C172.112 133.566 172.912 132.767 172.912 131.778H172.712C172.712 132.656 172.001 133.366 171.125 133.366V133.566ZM166.062 133.566H171.125V133.366H166.062V133.566ZM164.275 131.778C164.275 132.767 165.076 133.566 166.062 133.566V133.366C165.186 133.366 164.475 132.656 164.475 131.778H164.275ZM166.062 129.991C165.076 129.991 164.275 130.79 164.275 131.778H164.475C164.475 130.9 165.186 130.191 166.062 130.191V129.991ZM144.685 110.691H157.815V110.491H144.685V110.691ZM140.85 114.766C140.85 112.512 142.576 110.691 144.685 110.691V110.491C142.455 110.491 140.65 112.413 140.65 114.766H140.85ZM140.85 133.416V114.766H140.65V133.416H140.85ZM144.685 137.491C142.576 137.491 140.85 135.67 140.85 133.416H140.65C140.65 135.769 142.455 137.691 144.685 137.691V137.491ZM157.815 137.491H144.685V137.691H157.815V137.491ZM161.65 133.416C161.65 135.67 159.924 137.491 157.815 137.491V137.691C160.045 137.691 161.85 135.769 161.85 133.416H161.65ZM161.65 114.766V133.416H161.85V114.766H161.65ZM157.815 110.691C159.924 110.691 161.65 112.512 161.65 114.766H161.85C161.85 112.413 160.045 110.491 157.815 110.491V110.691ZM157.815 134.316C158.263 134.316 158.619 133.893 158.619 133.416H158.419C158.419 133.807 158.129 134.116 157.815 134.116V134.316ZM144.685 134.316H157.815V134.116H144.685V134.316ZM143.881 133.416C143.881 133.892 144.235 134.316 144.685 134.316V134.116C144.369 134.116 144.081 133.807 144.081 133.416H143.881ZM143.881 114.766V133.416H144.081V114.766H143.881ZM144.685 113.866C144.235 113.866 143.881 114.289 143.881 114.766H144.081C144.081 114.375 144.369 114.066 144.685 114.066V113.866ZM157.815 113.866H144.685V114.066H157.815V113.866ZM158.619 114.766C158.619 114.289 158.263 113.866 157.815 113.866V114.066C158.129 114.066 158.419 114.375 158.419 114.766H158.619ZM158.619 133.416V114.766H158.419V133.416H158.619ZM153.95 129.241H148.55V129.441H153.95V129.241ZM155.85 131.028C155.85 130.034 154.993 129.241 153.95 129.241V129.441C154.895 129.441 155.65 130.156 155.65 131.028H155.85ZM153.95 132.816C154.993 132.816 155.85 132.023 155.85 131.028H155.65C155.65 131.9 154.895 132.616 153.95 132.616V132.816ZM148.55 132.816H153.95V132.616H148.55V132.816ZM146.65 131.028C146.65 132.023 147.507 132.816 148.55 132.816V132.616C147.605 132.616 146.85 131.9 146.85 131.028H146.65ZM148.55 129.241C147.507 129.241 146.65 130.034 146.65 131.028H146.85C146.85 130.156 147.605 129.441 148.55 129.441V129.241Z" fill="white"/>
</svg>
