<svg width="320" height="170" viewBox="0 0 320 170" fill="none" xmlns="http://www.w3.org/2000/svg">
<path d="M86.2642 150.508C109.606 150.508 128.528 131.586 128.528 108.244C128.528 84.9018 109.606 65.9795 86.2642 65.9795C62.9223 65.9795 44 84.9018 44 108.244C44 131.586 62.9223 150.508 86.2642 150.508Z" fill="#E9E9E9"/>
<path d="M241.006 153.915C257.571 153.915 271 140.486 271 123.921C271 107.356 257.571 93.9268 241.006 93.9268C224.44 93.9268 211.012 107.356 211.012 123.921C211.012 140.486 224.44 153.915 241.006 153.915Z" fill="#E9E9E9"/>
<path d="M151.024 92.5635C164.577 92.5635 175.564 81.5763 175.564 68.023C175.564 54.4696 164.577 43.4824 151.024 43.4824C137.471 43.4824 126.483 54.4696 126.483 68.023C126.483 81.5763 137.471 92.5635 151.024 92.5635Z" fill="#E9E9E9"/>
<path d="M218.511 89.8369C236.582 89.8369 251.231 75.1874 251.231 57.1162C251.231 39.0451 236.582 24.3955 218.511 24.3955C200.44 24.3955 185.79 39.0451 185.79 57.1162C185.79 75.1874 200.44 89.8369 218.511 89.8369Z" fill="#E9E9E9"/>
<rect x="118" y="88" width="82" height="62" rx="10" fill="#FFD300"/>
<path fill-rule="evenodd" clip-rule="evenodd" d="M142.333 101.233C141.174 101.233 140.233 102.174 140.233 103.333V112.963C140.233 114.123 141.174 115.063 142.333 115.063H147.021V137.211H150.557L152.212 135.549L153.868 137.211H157.345L159 135.549L160.655 137.211H164.133L165.788 135.549L167.443 137.211H170.979V115.063H175.667C176.827 115.063 177.767 114.123 177.767 112.963V103.333C177.767 102.174 176.827 101.233 175.667 101.233H142.333ZM143.827 111.456V104.841H174.173V111.456H170.979V108.048H147.021V111.456H143.827ZM150.615 133.462V111.656H167.385V133.462L165.788 131.858L164.049 133.604H160.739L159 131.858L157.261 133.604H153.951L152.212 131.858L150.615 133.462ZM155.418 116.715C154.503 116.715 153.762 117.456 153.762 118.37C153.762 119.285 154.503 120.026 155.418 120.026H162.583C163.497 120.026 164.238 119.285 164.238 118.37C164.238 117.456 163.497 116.715 162.583 116.715H155.418ZM155.418 121.258C154.503 121.258 153.762 121.999 153.762 122.914C153.762 123.828 154.503 124.569 155.418 124.569H162.583C163.497 124.569 164.238 123.828 164.238 122.914C164.238 121.999 163.497 121.258 162.583 121.258H155.418Z" fill="white"/>
<path d="M86.2642 56.4346C95.2997 56.4346 102.625 49.1098 102.625 40.0742C102.625 31.0386 95.2997 23.7139 86.2642 23.7139C77.2286 23.7139 69.9038 31.0386 69.9038 40.0742C69.9038 49.1098 77.2286 56.4346 86.2642 56.4346Z" fill="#E9E9E9"/>
<rect x="73.653" y="86.088" width="25.2222" height="44.3093" rx="3.06757" stroke="white" stroke-width="4.77177"/>
<rect x="203.514" y="49.618" width="29.994" height="23.1772" rx="3.40841" stroke="#FFFEFE" stroke-width="4.09009"/>
<path d="M218.511 39.2198L238.337 54.0489H198.684L218.511 39.2198Z" fill="#E9E9E9" stroke="white" stroke-width="4.09009"/>
<path d="M223.282 115.741C223.282 114.235 224.503 113.015 226.009 113.015H241.006H251.959C252.791 113.015 253.578 113.395 254.095 114.046L258.139 119.141C258.521 119.624 258.73 120.221 258.73 120.837V122.558V129.375C258.73 130.881 257.509 132.102 256.003 132.102H226.009C224.503 132.102 223.282 130.881 223.282 129.375V115.741Z" stroke="white" stroke-width="4.09009"/>
<circle cx="229.758" cy="133.123" r="4.43093" fill="white" stroke="#E9E9E9" stroke-width="2.72673"/>
<circle cx="250.89" cy="133.123" r="4.43093" fill="white" stroke="#E9E9E9" stroke-width="2.72673"/>
<rect x="238.279" y="119.149" width="21.1321" height="4.09009" rx="2.04504" fill="white"/>
<rect x="81.4922" y="90.5186" width="9.54354" height="4.09009" rx="2.04504" fill="white"/>
<rect x="205.559" y="51.6631" width="25.9039" height="6.81681" fill="#E9E9E9"/>
<mask id="path-17-inside-1_441_878" fill="white">
<rect x="212.375" y="57.7969" width="12.9519" height="17.042" rx="1.36336"/>
</mask>
<rect x="212.375" y="57.7969" width="12.9519" height="17.042" rx="1.36336" stroke="white" stroke-width="8.18018" mask="url(#path-17-inside-1_441_878)"/>
<mask id="path-18-inside-2_441_878" fill="white">
<rect x="137.39" y="55.7529" width="27.2673" height="19.0871" rx="2.72673"/>
</mask>
<rect x="137.39" y="55.7529" width="27.2673" height="19.0871" rx="2.72673" stroke="white" stroke-width="8.18018" mask="url(#path-18-inside-2_441_878)"/>
<rect x="145.57" y="76.8857" width="10.9069" height="4.09009" rx="2.04504" fill="white"/>
<path d="M78.0841 33.0307L86.2642 35.4166L86.2642 48.4822L78.0841 46.0963L78.0841 33.0307Z" stroke="white" stroke-width="2.72673"/>
<path d="M78.0841 33.0307L86.2642 35.4166L86.2642 48.4822L78.0841 46.0963L78.0841 33.0307Z" stroke="white" stroke-width="2.72673"/>
<path d="M78.0841 33.0307L86.2642 35.4166L86.2642 48.4822L78.0841 46.0963L78.0841 33.0307Z" stroke="white" stroke-width="2.72673"/>
<path d="M94.4443 33.0307L86.2641 35.4166L86.2641 42.347V46.3235L86.2641 48.4822L87.2457 48.1958L89.9724 47.4006L94.4443 46.0963V33.0307Z" stroke="white" stroke-width="2.72673"/>
<path d="M94.4443 33.0307L86.2641 35.4166L86.2641 42.347V46.3235L86.2641 48.4822L87.2457 48.1958L89.9724 47.4006L94.4443 46.0963V33.0307Z" stroke="white" stroke-width="2.72673"/>
<path d="M94.4443 33.0307L86.2641 35.4166L86.2641 42.347V46.3235L86.2641 48.4822L87.2457 48.1958L89.9724 47.4006L94.4443 46.0963V33.0307Z" stroke="white" stroke-width="2.72673"/>
</svg>
