<svg width="320" height="170" viewBox="0 0 320 170" fill="none" xmlns="http://www.w3.org/2000/svg">
<rect width="320" height="170" fill="white"/>
<path d="M211.724 81.001H216.834C216.891 81.1852 217.048 81.1207 217.168 81.1287C220.354 81.356 223.467 81.9854 226.414 83.1959C238.787 88.2756 246.204 97.3712 248.481 110.598C248.616 111.351 248.559 112.133 248.831 112.863V118.108C248.618 118.182 248.706 118.369 248.696 118.512C248.41 121.574 247.811 124.581 246.643 127.423C241.559 139.788 232.465 147.213 219.239 149.49C218.44 149.625 217.616 149.568 216.838 149.84H211.728C211.674 149.66 211.518 149.714 211.395 149.705C210.081 149.595 208.775 149.406 207.483 149.138C193.348 146.193 182.468 134.622 180.356 120.313C180.249 119.58 180.303 118.817 180 118.115V112.735C180.182 112.682 180.128 112.526 180.134 112.403C180.245 111.089 180.435 109.782 180.703 108.491C183.647 94.3559 195.218 83.4756 209.529 81.3641C210.26 81.2484 211.023 81.3022 211.724 81.001ZM214.404 136.792C226.007 136.804 235.73 127.108 235.788 115.457C235.845 103.855 226.067 94.056 214.413 94.0466C202.804 94.0331 193.091 103.722 193.029 115.375C192.981 126.967 202.767 136.778 214.405 136.79L214.404 136.792Z" fill="#DDDDDD"/>
<path d="M214.405 136.79C202.767 136.778 192.981 126.972 193.039 115.37C193.097 103.716 202.81 94.0276 214.423 94.041C226.071 94.0558 235.849 103.859 235.792 115.456C235.732 127.101 226.008 136.802 214.405 136.79ZM197.074 115.43C197.1 117.627 197.523 119.8 198.322 121.846C198.476 122.238 198.609 122.224 198.931 122.035C201.245 120.682 203.566 119.342 205.895 118.015C206.192 117.846 206.318 117.69 206.22 117.336C205.869 116.079 205.869 114.749 206.22 113.491C206.304 113.182 206.22 113.018 205.939 112.855C203.591 111.516 201.25 110.165 198.917 108.8C198.558 108.589 198.456 108.666 198.318 109.015C197.517 111.06 197.096 113.234 197.074 115.43ZM231.753 115.382C231.737 113.185 231.309 111.011 230.492 108.972C230.345 108.604 230.223 108.624 229.93 108.795C227.598 110.156 225.257 111.505 222.905 112.843C222.582 113.026 222.529 113.218 222.615 113.537C222.956 114.772 222.957 116.077 222.617 117.313C222.527 117.643 222.603 117.823 222.917 118.002C225.248 119.326 227.57 120.667 229.881 122.023C230.248 122.24 230.377 122.191 230.528 121.799C231.273 119.858 231.678 117.851 231.753 115.375V115.382ZM212.396 102.764C212.396 101.443 212.377 100.123 212.408 98.8033C212.419 98.3649 212.299 98.2842 211.888 98.3501C207.393 99.079 203.707 101.195 200.841 104.74C200.608 105.028 200.638 105.143 200.954 105.326C203.28 106.655 205.6 107.995 207.912 109.347C208.212 109.522 208.407 109.516 208.661 109.265C209.574 108.369 210.698 107.717 211.929 107.37C212.294 107.265 212.415 107.109 212.407 106.725C212.38 105.405 212.396 104.085 212.396 102.764ZM216.431 102.786C216.431 104.083 216.444 105.383 216.421 106.686C216.415 107.077 216.507 107.268 216.918 107.385C218.129 107.722 219.236 108.36 220.133 109.241C220.402 109.51 220.601 109.538 220.94 109.343C223.232 107.998 225.531 106.667 227.838 105.35C228.157 105.169 228.252 105.06 227.981 104.726C225.107 101.188 221.422 99.0777 216.926 98.3515C216.466 98.2761 216.423 98.4429 216.429 98.8302C216.443 100.144 216.431 101.465 216.431 102.788V102.786ZM212.396 128.046C212.396 126.748 212.383 125.45 212.405 124.152C212.412 123.759 212.321 123.568 211.909 123.453C210.698 123.116 209.592 122.477 208.695 121.597C208.426 121.328 208.226 121.3 207.888 121.495C205.596 122.839 203.297 124.17 200.99 125.486C200.671 125.668 200.576 125.777 200.847 126.11C203.721 129.649 207.408 131.759 211.902 132.485C212.364 132.56 212.405 132.394 212.4 132.006C212.384 130.687 212.396 129.366 212.396 128.046ZM216.431 128.063C216.431 129.361 216.452 130.66 216.419 131.963C216.407 132.443 216.518 132.562 217.002 132.481C221.441 131.74 225.092 129.647 227.943 126.16C228.212 125.832 228.204 125.703 227.818 125.488C225.508 124.176 223.212 122.841 220.917 121.5C220.621 121.326 220.425 121.324 220.17 121.577C219.257 122.474 218.133 123.126 216.901 123.474C216.541 123.578 216.412 123.727 216.42 124.116C216.447 125.422 216.431 126.742 216.431 128.063ZM214.438 110.983C213.262 110.987 212.135 111.453 211.3 112.282C210.465 113.11 209.989 114.233 209.975 115.409C209.985 116.572 210.448 117.686 211.265 118.514C212.081 119.343 213.189 119.821 214.352 119.847C216.762 119.887 218.811 117.882 218.841 115.455C218.87 113.027 216.862 111 214.438 110.983Z" fill="#E9E9E9"/>
<path d="M214.437 110.982C216.858 111 218.876 113.041 218.846 115.456C218.816 117.87 216.767 119.894 214.357 119.848C213.194 119.822 212.087 119.344 211.27 118.515C210.453 117.687 209.991 116.573 209.98 115.41C209.994 114.235 210.469 113.112 211.302 112.284C212.136 111.455 213.262 110.988 214.437 110.982Z" fill="#DDDDDD"/>
<rect x="72" y="65" width="68" height="85" rx="4" fill="#DDDDDD"/>
<circle cx="106" cy="116" r="22.5" fill="#E9E9E9" stroke="white" stroke-width="4"/>
<rect x="80" y="69.5" width="14" height="8" rx="2" fill="white"/>
<circle cx="106" cy="73.5" r="4" fill="white"/>
<circle cx="121.5" cy="73.5" r="2.5" fill="white"/>
<circle cx="129.5" cy="73.5" r="2.5" fill="white"/>
<rect x="72" y="81.5" width="68" height="4" fill="white"/>
<path d="M120 111.831C120 111.314 120.266 110.833 120.705 110.559L125.705 107.434C126.704 106.81 128 107.528 128 108.706V123.294C128 124.472 126.704 125.19 125.705 124.566L120.705 121.441C120.266 121.167 120 120.686 120 120.169V111.831Z" fill="white"/>
<path d="M191.142 58.7292L187.05 54.658L187.102 79.3802C187.103 80.0161 186.587 80.5355 185.948 80.536L158.844 80.5765C158.205 80.5769 157.687 80.061 157.684 79.422L157.632 54.6998L153.558 58.7848C153.107 59.2386 152.376 59.238 151.922 58.7877L144.793 51.6891C144.341 51.2397 144.339 50.5084 144.789 50.057L148.533 46.3009L157.257 37.5539C157.473 37.3386 157.768 37.2152 158.076 37.215L159.491 37.2141L164.043 37.2081C164.499 37.2063 164.921 37.4713 165.099 37.892C166.289 40.7 169.072 42.6681 172.315 42.6632C175.557 42.6583 178.334 40.68 179.511 37.8721C179.686 37.4501 180.11 37.1835 180.566 37.1817L186.534 37.1724C186.842 37.1722 187.136 37.2947 187.351 37.5107L199.873 49.9765C200.325 50.426 200.328 51.1573 199.876 51.6079L192.777 58.7286C192.325 59.1792 191.593 59.181 191.142 58.7292Z" fill="#E9E9E9"/>
<rect x="119" y="88" width="82" height="62" rx="10" fill="#0089D0"/>
<path fill-rule="evenodd" clip-rule="evenodd" d="M142.41 103.027C141.539 103.027 140.833 103.742 140.833 104.625C140.833 105.507 141.539 106.222 142.41 106.222H146.164L148.69 115.817C148.712 115.902 148.741 115.984 148.776 116.062L150.704 123.347C151.147 125.022 152.646 126.187 154.358 126.187H170.336C171.815 126.187 173.158 125.314 173.774 123.952L178.934 112.558C179.701 110.865 178.48 108.937 176.642 108.937H150.142L149.148 105.162C148.817 103.903 147.692 103.027 146.407 103.027H142.41ZM153.749 122.519L150.999 112.132H175.659L170.909 122.62C170.806 122.847 170.582 122.993 170.336 122.993H154.358C154.073 122.993 153.823 122.798 153.749 122.519ZM155.746 134.812C157.313 134.812 158.584 133.525 158.584 131.937C158.584 130.349 157.313 129.062 155.746 129.062C154.179 129.062 152.909 130.349 152.909 131.937C152.909 133.525 154.179 134.812 155.746 134.812ZM171.352 131.937C171.352 133.525 170.082 134.812 168.515 134.812C166.947 134.812 165.677 133.525 165.677 131.937C165.677 130.349 166.947 129.062 168.515 129.062C170.082 129.062 171.352 130.349 171.352 131.937Z" fill="white"/>
<path d="M146.164 106.222L146.309 106.184L146.28 106.072H146.164V106.222ZM148.69 115.817L148.835 115.779V115.779L148.69 115.817ZM148.776 116.062L148.921 116.024L148.917 116.012L148.913 116.001L148.776 116.062ZM150.704 123.347L150.559 123.385L150.704 123.347ZM173.774 123.952L173.911 124.014L173.774 123.952ZM178.934 112.558L179.071 112.62L178.934 112.558ZM150.142 108.937L149.997 108.975L150.026 109.087H150.142V108.937ZM149.148 105.162L149.293 105.123L149.148 105.162ZM150.999 112.132V111.982H150.805L150.854 112.17L150.999 112.132ZM153.749 122.519L153.604 122.558L153.749 122.519ZM175.659 112.132L175.795 112.193L175.891 111.982H175.659V112.132ZM170.909 122.62L171.046 122.682L170.909 122.62ZM140.983 104.625C140.983 103.823 141.624 103.177 142.41 103.177V102.877C141.455 102.877 140.683 103.661 140.683 104.625H140.983ZM142.41 106.072C141.624 106.072 140.983 105.426 140.983 104.625H140.683C140.683 105.588 141.455 106.372 142.41 106.372V106.072ZM146.164 106.072H142.41V106.372H146.164V106.072ZM148.835 115.779L146.309 106.184L146.019 106.26L148.545 115.856L148.835 115.779ZM148.913 116.001C148.881 115.931 148.855 115.857 148.835 115.779L148.545 115.856C148.569 115.948 148.601 116.038 148.638 116.123L148.913 116.001ZM148.631 116.1L150.559 123.385L150.849 123.308L148.921 116.024L148.631 116.1ZM150.559 123.385C151.019 125.125 152.577 126.337 154.358 126.337V126.037C152.715 126.037 151.275 124.919 150.849 123.308L150.559 123.385ZM154.358 126.337H170.336V126.037H154.358V126.337ZM170.336 126.337C171.874 126.337 173.27 125.429 173.911 124.014L173.638 123.89C173.045 125.199 171.755 126.037 170.336 126.037V126.337ZM173.911 124.014L179.071 112.62L178.797 112.496L173.638 123.89L173.911 124.014ZM179.071 112.62C179.881 110.831 178.592 108.787 176.642 108.787V109.087C178.368 109.087 179.52 110.9 178.797 112.496L179.071 112.62ZM176.642 108.787H150.142V109.087H176.642V108.787ZM149.003 105.2L149.997 108.975L150.287 108.899L149.293 105.123L149.003 105.2ZM146.407 103.177C147.623 103.177 148.689 104.006 149.003 105.2L149.293 105.123C148.945 103.8 147.761 102.877 146.407 102.877V103.177ZM142.41 103.177H146.407V102.877H142.41V103.177ZM150.854 112.17L153.604 122.558L153.894 122.481L151.144 112.093L150.854 112.17ZM175.659 111.982H150.999V112.282H175.659V111.982ZM171.046 122.682L175.795 112.193L175.522 112.07L170.772 122.558L171.046 122.682ZM170.336 123.143C170.642 123.143 170.919 122.962 171.046 122.682L170.772 122.558C170.693 122.732 170.522 122.843 170.336 122.843V123.143ZM154.358 123.143H170.336V122.843H154.358V123.143ZM153.604 122.558C153.695 122.901 154.003 123.143 154.358 123.143V122.843C154.142 122.843 153.951 122.695 153.894 122.481L153.604 122.558ZM158.434 131.937C158.434 133.444 157.229 134.662 155.746 134.662V134.962C157.398 134.962 158.734 133.606 158.734 131.937H158.434ZM155.746 129.212C157.229 129.212 158.434 130.43 158.434 131.937H158.734C158.734 130.268 157.398 128.912 155.746 128.912V129.212ZM153.059 131.937C153.059 130.43 154.264 129.212 155.746 129.212V128.912C154.094 128.912 152.759 130.268 152.759 131.937H153.059ZM155.746 134.662C154.264 134.662 153.059 133.444 153.059 131.937H152.759C152.759 133.606 154.094 134.962 155.746 134.962V134.662ZM168.515 134.962C170.166 134.962 171.502 133.606 171.502 131.937H171.202C171.202 133.444 169.997 134.662 168.515 134.662V134.962ZM165.527 131.937C165.527 133.606 166.863 134.962 168.515 134.962V134.662C167.032 134.662 165.827 133.444 165.827 131.937H165.527ZM168.515 128.912C166.863 128.912 165.527 130.268 165.527 131.937H165.827C165.827 130.43 167.032 129.212 168.515 129.212V128.912ZM171.502 131.937C171.502 130.268 170.166 128.912 168.515 128.912V129.212C169.997 129.212 171.202 130.43 171.202 131.937H171.502Z" fill="white"/>
</svg>
