<svg width="320" height="170" viewBox="0 0 320 170" fill="none" xmlns="http://www.w3.org/2000/svg">
<rect x="55" y="71.2324" width="109.2" height="78.65" rx="10.4" fill="#E9E9E9"/>
<rect x="69.9502" y="114.782" width="65.65" height="11.7" rx="5.85" fill="white"/>
<rect x="69.9502" y="114.782" width="65.65" height="11.7" rx="5.85" fill="white"/>
<rect x="190.2" y="80.332" width="72.8" height="50.7" rx="7.8" fill="#E9E9E9"/>
<rect x="201.9" y="108.933" width="48.1" height="9.1" rx="4.55" fill="white"/>
<rect x="201.9" y="108.933" width="48.1" height="9.1" rx="4.55" fill="white"/>
<rect x="201.9" y="93.332" width="16.25" height="9.1" rx="4.55" fill="white"/>
<rect x="201.9" y="93.332" width="16.25" height="9.1" rx="4.55" fill="white"/>
<rect x="119" y="88" width="82" height="62" rx="10.4" fill="#FFD300"/>
<path fill-rule="evenodd" clip-rule="evenodd" d="M144.873 113.773C144.873 114.801 144.041 115.635 143.012 115.635C141.982 115.635 141.15 114.801 141.15 113.773C141.15 110.114 144.631 106.328 150.457 106.328H172.023L167.755 102.06C167.027 101.334 167.027 100.154 167.755 99.4277C168.483 98.6999 169.659 98.6999 170.387 99.4277L177.832 106.873C178.56 107.599 178.56 108.779 177.832 109.505L170.387 116.951C170.024 117.314 169.547 117.496 169.071 117.496C168.594 117.496 168.118 117.314 167.755 116.951C167.027 116.225 167.027 115.045 167.755 114.319L172.023 110.05H150.457C147.008 110.05 144.873 111.983 144.873 113.773ZM174.655 124.959C174.655 123.932 175.487 123.098 176.517 123.098C177.546 123.098 178.378 123.932 178.378 124.959C178.378 128.618 174.897 132.405 169.071 132.405H147.506L151.774 136.673C152.501 137.399 152.501 138.579 151.774 139.305C151.046 140.032 149.869 140.032 149.142 139.305L141.696 131.859C140.968 131.133 140.968 129.953 141.696 129.227L149.142 121.782C149.505 121.419 149.981 121.236 150.458 121.236C150.934 121.236 151.411 121.419 151.774 121.782C152.501 122.508 152.501 123.688 151.774 124.414L147.506 128.682H169.071C172.52 128.682 174.655 126.75 174.655 124.959Z" fill="white"/>
<rect x="69.9502" y="93.9824" width="20.8" height="11.7" rx="5.85" fill="white"/>
<rect x="69.9502" y="93.9824" width="20.8" height="11.7" rx="5.85" fill="white"/>
<path fill-rule="evenodd" clip-rule="evenodd" d="M192.994 54.3042C193.078 53.4666 193.123 52.6075 193.123 51.7324C193.123 50.9429 193.086 50.1664 193.017 49.4069C191.31 49.6688 189.475 49.8238 187.565 49.8238C185.679 49.8238 183.867 49.6728 182.178 49.4171C182.11 50.1733 182.073 50.9464 182.073 51.7324C182.073 52.604 182.118 53.4597 182.202 54.2941C183.883 54.0406 185.688 53.891 187.565 53.891C189.466 53.891 191.293 54.0446 192.994 54.3042ZM192.152 58.7788C190.719 58.5673 189.175 58.441 187.565 58.441C185.979 58.441 184.457 58.5636 183.042 58.7693C183.508 60.4428 184.107 61.9536 184.758 63.2385C185.5 64.701 186.276 65.8019 186.939 66.4995C186.998 66.5626 187.056 66.6208 187.111 66.6746C187.274 66.6798 187.437 66.6824 187.6 66.6824C187.762 66.6824 187.924 66.6798 188.085 66.6747C188.141 66.6209 188.198 66.5626 188.258 66.4995C188.921 65.8019 189.697 64.701 190.439 63.2385C191.089 61.956 191.686 60.4485 192.152 58.7788ZM194.696 64.8944C195.425 63.3915 196.083 61.6695 196.594 59.7855C196.882 59.8767 197.16 59.9704 197.426 60.0658C198.222 60.3514 198.882 60.6421 199.401 60.9121C198.13 62.5436 196.528 63.9047 194.696 64.8944ZM189.732 71.1172C189.032 71.1933 188.321 71.2324 187.6 71.2324C187.6 71.2324 187.599 71.2324 187.598 71.2324C186.877 71.2324 186.165 71.1931 185.464 71.1167C178.898 70.4013 173.312 66.4272 170.356 60.846C170.325 60.7863 170.294 60.7265 170.263 60.6665C168.881 57.99 168.1 54.9523 168.1 51.7324C168.1 41.6849 175.699 33.4122 185.464 32.3481C186.165 32.2717 186.877 32.2325 187.598 32.2324C187.599 32.2324 187.6 32.2324 187.6 32.2324C188.321 32.2324 189.032 32.2715 189.732 32.3477C199.499 33.4098 207.1 41.6834 207.1 51.7324C207.1 55.0031 206.295 58.0857 204.872 60.7928C204.863 60.8105 204.853 60.8283 204.844 60.846C201.887 66.4284 196.299 70.403 189.732 71.1172ZM200.564 61.679C200.576 61.6932 200.572 61.6912 200.559 61.6736C200.561 61.6758 200.562 61.6776 200.564 61.679ZM201.619 56.9379C200.843 56.5249 199.944 56.1353 198.963 55.7832C198.489 55.6132 197.988 55.4491 197.463 55.2934C197.599 54.1394 197.673 52.9492 197.673 51.7324C197.673 50.6004 197.609 49.4915 197.49 48.4132C198.006 48.2599 198.497 48.0986 198.963 47.9316C199.976 47.568 200.901 47.1643 201.695 46.7362C202.249 48.2985 202.55 49.9803 202.55 51.7324C202.55 53.5631 202.221 55.3169 201.619 56.9379ZM200.564 42.0358C200.562 42.0372 200.561 42.039 200.559 42.0412C200.572 42.0236 200.576 42.0216 200.564 42.0358ZM199.537 42.7304C199 43.0204 198.293 43.3377 197.426 43.649C197.179 43.7376 196.922 43.8247 196.655 43.9097C196.136 41.9356 195.455 40.1344 194.696 38.5705C196.594 39.5959 198.245 41.0199 199.537 42.7304ZM187.111 36.7903C187.274 36.7851 187.437 36.7824 187.6 36.7824C187.762 36.7824 187.924 36.785 188.085 36.7902C188.141 36.8439 188.198 36.9022 188.258 36.9653C188.921 37.6629 189.697 38.7638 190.439 40.2264C191.12 41.5701 191.743 43.1607 192.217 44.9262C190.766 45.1435 189.199 45.2738 187.565 45.2738C185.954 45.2738 184.41 45.1474 182.977 44.9359C183.451 43.1665 184.076 41.5725 184.758 40.2264C185.5 38.7638 186.276 37.6629 186.939 36.9653C186.998 36.9023 187.056 36.844 187.111 36.7903ZM180.5 38.573C178.593 39.6037 176.937 41.0364 175.643 42.7575C176.173 43.0401 176.863 43.3473 177.703 43.649C177.97 43.7445 178.247 43.8383 178.536 43.9295C179.055 41.9487 179.738 40.1415 180.5 38.573ZM177.704 48.4325C177.587 49.5047 177.523 50.6072 177.523 51.7324C177.523 52.9424 177.597 54.1262 177.732 55.2742C177.183 55.4356 176.66 55.6062 176.167 55.7832C175.21 56.1263 174.332 56.5051 173.57 56.9066C172.975 55.2943 172.65 53.5513 172.65 51.7324C172.65 49.9922 172.947 48.3214 173.494 46.7681C174.274 47.1844 175.178 47.5771 176.167 47.9316C176.652 48.1057 177.165 48.2735 177.704 48.4325ZM174.566 42.0358C174.554 42.0216 174.557 42.0236 174.57 42.0412C174.568 42.039 174.567 42.0372 174.566 42.0358ZM174.566 61.679C174.567 61.6776 174.568 61.6758 174.57 61.6736C174.557 61.6912 174.554 61.6932 174.566 61.679ZM175.779 60.8859C176.29 60.6234 176.933 60.3422 177.703 60.0658C177.988 59.9635 178.287 59.8633 178.598 59.766C179.109 61.6566 179.768 63.3844 180.5 64.8918C178.66 63.897 177.052 62.5277 175.779 60.8859Z" fill="#E9E9E9"/>
</svg>
