<svg width="320" height="170" viewBox="0 0 320 170" fill="none" xmlns="http://www.w3.org/2000/svg">
<path d="M233.979 141.257C233.948 141.514 233.932 141.772 233.933 142.031C233.933 145.878 237.036 148.996 240.864 148.996C244.692 148.996 247.795 145.878 247.795 142.031C247.795 141.772 247.78 141.514 247.748 141.257" fill="#DDDDDD"/>
<path d="M213.123 141.257C213.091 141.514 213.076 141.772 213.076 142.031C213.076 145.878 216.18 148.996 220.007 148.996C223.835 148.996 226.938 145.878 226.938 142.031C226.939 141.772 226.923 141.514 226.892 141.257" fill="#DDDDDD"/>
<path fill-rule="evenodd" clip-rule="evenodd" d="M262.312 126.745L262.33 126.745C262.01 125.667 261.529 124.645 260.902 123.714L258.64 120.295L257.581 118.683L256.506 117.071L246.88 102.559L245.821 100.947L244.746 99.3344L243.8 97.9156C241.714 94.7732 238.205 92.8855 234.446 92.885L136.41 92.8848C134.641 92.8901 125.783 96.1095 125.777 97.8883L126.312 127.776L148.7 127.606L150.702 135.18C143.696 134.94 96.6161 141.257 171.363 141.257H251.564C255.112 141.258 258.451 139.574 260.571 136.716C262.691 133.858 263.343 130.162 262.33 126.745L262.312 126.745Z" fill="#E9E9E9"/>
<path d="M255.418 115.459L232.357 115.459C230.74 115.454 229.432 114.197 229.427 112.645V102.794C229.432 101.242 230.74 99.9844 232.357 99.9798L245.15 99.9795L246.04 101.269L254.455 114.052L255.418 115.459Z" fill="white"/>
<path d="M219.742 99.9795H208.307C206.502 99.9795 205.04 101.24 205.04 102.794V112.644C205.04 114.199 206.502 115.459 208.307 115.459H219.742C221.546 115.459 223.009 114.199 223.009 112.644V102.794C223.009 101.24 221.546 99.9795 219.742 99.9795Z" fill="white"/>
<path d="M195.355 99.9795H183.92C182.116 99.9795 180.653 101.24 180.653 102.794V112.644C180.653 114.199 182.116 115.459 183.92 115.459H195.355C197.16 115.459 198.622 114.199 198.622 112.644V102.794C198.622 101.24 197.16 99.9795 195.355 99.9795Z" fill="white"/>
<path d="M166.577 99.9355H155.347C153.574 99.9355 152.138 101.379 152.138 103.16V114.447C152.138 116.228 153.574 117.672 155.347 117.672H166.577C168.349 117.672 169.786 116.228 169.786 114.447V103.16C169.786 101.379 168.349 99.9355 166.577 99.9355Z" fill="white"/>
<path d="M197.033 126.1V129.324C197.025 131.993 194.874 134.154 192.22 134.161H180.989C178.334 134.154 176.184 131.993 176.176 129.324V126.1H179.385V129.324C179.385 130.215 180.103 130.937 180.989 130.937H192.22C193.106 130.937 193.824 130.215 193.824 129.324V126.1H197.033Z" fill="#E9E9E9"/>
<path d="M161.54 20.0039H151.433L167.435 48.565H185.121L161.54 20.0039Z" fill="#DDDDDD"/>
<mask id="mask0_1712_8103" style="mask-type:alpha" maskUnits="userSpaceOnUse" x="108" y="34" width="121" height="25">
<path d="M108.311 36.47L117.924 57.7549C118.131 58.2146 118.589 58.5101 119.094 58.5101H226.649C227.993 58.5101 229.029 57.1348 228.58 55.8677C227.433 52.6286 224.871 47.5671 217.52 43.8912C211.242 40.7526 201.618 41.07 195.976 40.8135L125.959 43.1218L118.265 34.6582H109.481C108.549 34.6582 107.928 35.6205 108.311 36.47Z" fill="#DDDDDD"/>
</mask>
<g mask="url(#mask0_1712_8103)">
<rect x="97.9724" y="30.2559" width="145.002" height="37.3491" fill="#E9E9E9"/>
<rect x="212.95" y="44.9023" width="12.4497" height="3.66168" rx="1.83084" fill="white"/>
</g>
<path d="M143.452 77.1523L170.209 50.082H193.582L153.93 77.1523H143.452Z" fill="#E9E9E9"/>
<path fill-rule="evenodd" clip-rule="evenodd" d="M83.5899 97.4008L88.7736 97.1129L91.1599 97.5024L91.6009 98.4311C93.6688 102.786 98.2076 114.135 99.9159 124.976C101.606 135.7 101.507 143.817 101.223 146.663L101.043 148.998L79.5345 148.998C81.1402 145.542 84.4884 136.447 85.5065 126.542C86.5453 116.435 84.9518 104.362 84.0222 99.6105L83.5899 97.4008Z" fill="#DDDDDD"/>
<path fill-rule="evenodd" clip-rule="evenodd" d="M67.3563 78.736C63.0882 79.2419 59.2599 80.6082 56.9817 81.7467C56.3216 82.0765 55.9026 82.749 55.8973 83.4869C55.8921 84.2249 56.3015 84.9033 56.9568 85.2425L73.1094 93.6035C70.8609 93.7357 68.5391 94.1856 66.2549 95.0965C54.8659 99.6383 50.3137 111.456 49.0052 116.746C48.8224 117.485 49.0836 118.262 49.6752 118.741C50.2668 119.22 51.082 119.313 51.7664 118.98L87.0036 101.848C87.3646 101.689 87.6993 101.579 88.0939 101.541C88.4912 101.502 88.984 101.532 89.6562 101.697L123.033 112.206C123.73 112.426 124.492 112.239 125.009 111.722C125.526 111.204 125.712 110.442 125.492 109.745C124.983 108.134 123.942 105.595 122.433 103.052C120.938 100.533 118.882 97.834 116.276 96.0981C113.475 94.2325 110.131 92.8771 105.968 92.627L126.107 82.835C126.802 82.4973 127.233 81.7834 127.21 81.0114C127.186 80.2395 126.712 79.5533 125.998 79.2586C123.855 78.3743 120.183 77.3001 115.924 76.8353C111.667 76.3707 106.686 76.4995 102.009 78.1519C97.1177 79.8799 93.4877 83.7945 90.9631 87.7403C90.2105 88.9165 89.5437 90.1146 88.9604 91.2888C87.7187 87.6418 85.2735 83.7441 80.7833 81.0795C76.5348 78.5583 71.6141 78.2313 67.3563 78.736Z" fill="#E9E9E9"/>
<path d="M104.166 63.8968C104.057 65.9405 102.041 67.1211 99.9939 67.1211H59.8261C56.967 67.1211 54.4672 64.7028 55.8146 62.1811C57.3601 59.2887 60.3392 57.4174 63.6718 57.4174C65.1572 57.4174 66.5587 57.7661 67.7943 58.3836C68.889 52.7925 73.9494 48.5654 80.0267 48.5654C85.0114 48.5654 89.3119 51.4092 91.3013 55.5169C92.4708 54.9788 93.7786 54.6779 95.1588 54.6779C100.14 54.6779 104.179 58.5987 104.179 63.4352C104.179 63.5901 104.174 63.7439 104.166 63.8968Z" fill="#E9E9E9"/>
<rect x="119" y="87" width="82" height="62" rx="10" fill="#F14635"/>
<mask id="path-18-outside-1_1712_8103" maskUnits="userSpaceOnUse" x="141" y="97.4434" width="38" height="41" fill="black">
<rect fill="white" x="141" y="97.4434" width="38" height="41"/>
<path fill-rule="evenodd" clip-rule="evenodd" d="M163.271 101.476H157.193C156.354 101.476 155.674 102.155 155.674 102.992V104.508H164.79V102.992C164.79 102.155 164.11 101.476 163.271 101.476ZM157.193 98.4434C154.676 98.4434 152.635 100.48 152.635 102.992V104.51H148.077C144.721 104.51 142 107.225 142 110.575V127.253C142 130.079 143.937 132.454 146.558 133.127V133.317C146.558 135.829 148.599 137.866 151.116 137.866C153.633 137.866 155.674 135.83 155.675 133.318H164.791C164.792 135.83 166.832 137.866 169.349 137.866C171.867 137.866 173.907 135.829 173.907 133.317V133.127C176.529 132.454 178.465 130.079 178.465 127.253V110.575C178.465 107.225 175.744 104.51 172.388 104.51H167.829V102.992C167.829 100.48 165.788 98.4434 163.271 98.4434H157.193ZM167.83 133.318H170.868C170.868 134.155 170.188 134.833 169.349 134.833C168.51 134.833 167.83 134.155 167.83 133.318ZM172.483 130.284C174.117 130.234 175.427 128.896 175.427 127.253V110.575C175.427 108.9 174.066 107.542 172.388 107.542H148.077C146.399 107.542 145.039 108.9 145.039 110.575V127.253C145.039 128.896 146.348 130.234 147.982 130.284H155.675V130.286H164.791V130.284H172.483ZM151.116 134.833C150.278 134.833 149.598 134.155 149.597 133.318H152.636C152.635 134.155 151.955 134.833 151.116 134.833ZM154.155 115.123C154.155 114.286 153.475 113.607 152.636 113.607C151.797 113.607 151.116 114.286 151.116 115.123C151.116 120.148 155.198 124.221 160.233 124.221C165.267 124.221 169.349 120.148 169.349 115.123C169.349 114.286 168.669 113.607 167.83 113.607C166.99 113.607 166.31 114.286 166.31 115.123C166.31 118.473 163.589 121.188 160.233 121.188C156.876 121.188 154.155 118.473 154.155 115.123Z"/>
</mask>
<path fill-rule="evenodd" clip-rule="evenodd" d="M163.271 101.476H157.193C156.354 101.476 155.674 102.155 155.674 102.992V104.508H164.79V102.992C164.79 102.155 164.11 101.476 163.271 101.476ZM157.193 98.4434C154.676 98.4434 152.635 100.48 152.635 102.992V104.51H148.077C144.721 104.51 142 107.225 142 110.575V127.253C142 130.079 143.937 132.454 146.558 133.127V133.317C146.558 135.829 148.599 137.866 151.116 137.866C153.633 137.866 155.674 135.83 155.675 133.318H164.791C164.792 135.83 166.832 137.866 169.349 137.866C171.867 137.866 173.907 135.829 173.907 133.317V133.127C176.529 132.454 178.465 130.079 178.465 127.253V110.575C178.465 107.225 175.744 104.51 172.388 104.51H167.829V102.992C167.829 100.48 165.788 98.4434 163.271 98.4434H157.193ZM167.83 133.318H170.868C170.868 134.155 170.188 134.833 169.349 134.833C168.51 134.833 167.83 134.155 167.83 133.318ZM172.483 130.284C174.117 130.234 175.427 128.896 175.427 127.253V110.575C175.427 108.9 174.066 107.542 172.388 107.542H148.077C146.399 107.542 145.039 108.9 145.039 110.575V127.253C145.039 128.896 146.348 130.234 147.982 130.284H155.675V130.286H164.791V130.284H172.483ZM151.116 134.833C150.278 134.833 149.598 134.155 149.597 133.318H152.636C152.635 134.155 151.955 134.833 151.116 134.833ZM154.155 115.123C154.155 114.286 153.475 113.607 152.636 113.607C151.797 113.607 151.116 114.286 151.116 115.123C151.116 120.148 155.198 124.221 160.233 124.221C165.267 124.221 169.349 120.148 169.349 115.123C169.349 114.286 168.669 113.607 167.83 113.607C166.99 113.607 166.31 114.286 166.31 115.123C166.31 118.473 163.589 121.188 160.233 121.188C156.876 121.188 154.155 118.473 154.155 115.123Z" fill="white"/>
<path d="M155.674 104.508H155.249V104.933H155.674V104.508ZM164.79 104.508V104.933H165.215V104.508H164.79ZM152.635 104.51V104.935H153.06V104.51H152.635ZM146.558 133.127H146.983V132.798L146.664 132.716L146.558 133.127ZM155.675 133.318V132.893H155.25L155.25 133.318L155.675 133.318ZM164.791 133.318L165.216 133.318L165.216 132.893H164.791V133.318ZM173.907 133.127L173.802 132.716L173.482 132.798V133.127H173.907ZM167.829 104.51H167.404V104.935H167.829V104.51ZM170.868 133.318L171.293 133.319L171.294 132.893H170.868V133.318ZM167.83 133.318V132.893H167.404L167.405 133.319L167.83 133.318ZM172.483 130.284V130.709L172.496 130.709L172.483 130.284ZM147.982 130.284L147.969 130.709H147.982V130.284ZM155.675 130.284H156.1V129.859H155.675V130.284ZM155.675 130.286H155.25V130.711H155.675V130.286ZM164.791 130.286V130.711H165.216V130.286H164.791ZM164.791 130.284V129.859H164.366V130.284H164.791ZM149.597 133.318V132.893H149.172L149.172 133.319L149.597 133.318ZM152.636 133.318L153.061 133.319L153.061 132.893H152.636V133.318ZM157.193 101.901H163.271V101.051H157.193V101.901ZM156.099 102.992C156.099 102.39 156.588 101.901 157.193 101.901V101.051C156.12 101.051 155.249 101.919 155.249 102.992H156.099ZM156.099 104.508V102.992H155.249V104.508H156.099ZM164.79 104.083H155.674V104.933H164.79V104.083ZM164.365 102.992V104.508H165.215V102.992H164.365ZM163.271 101.901C163.876 101.901 164.365 102.39 164.365 102.992H165.215C165.215 101.919 164.344 101.051 163.271 101.051V101.901ZM153.06 102.992C153.06 100.715 154.91 98.8684 157.193 98.8684V98.0184C154.442 98.0184 152.21 100.244 152.21 102.992H153.06ZM153.06 104.51V102.992H152.21V104.51H153.06ZM148.077 104.935H152.635V104.085H148.077V104.935ZM142.425 110.575C142.425 107.461 144.955 104.935 148.077 104.935V104.085C144.487 104.085 141.575 106.989 141.575 110.575H142.425ZM142.425 127.253V110.575H141.575V127.253H142.425ZM146.664 132.716C144.225 132.089 142.425 129.88 142.425 127.253H141.575C141.575 130.279 143.648 132.819 146.452 133.539L146.664 132.716ZM146.983 133.317V133.127H146.133V133.317H146.983ZM151.116 137.441C148.833 137.441 146.983 135.593 146.983 133.317H146.133C146.133 136.065 148.365 138.291 151.116 138.291V137.441ZM155.25 133.318C155.249 135.594 153.399 137.441 151.116 137.441V138.291C153.867 138.291 156.099 136.065 156.1 133.318L155.25 133.318ZM164.791 132.893H155.675V133.743H164.791V132.893ZM164.366 133.318C164.367 136.065 166.598 138.291 169.349 138.291V137.441C167.066 137.441 165.217 135.594 165.216 133.318L164.366 133.318ZM169.349 138.291C172.1 138.291 174.332 136.065 174.332 133.317H173.482C173.482 135.593 171.633 137.441 169.349 137.441V138.291ZM174.332 133.317V133.127H173.482V133.317H174.332ZM178.04 127.253C178.04 129.88 176.24 132.089 173.802 132.716L174.013 133.539C176.817 132.819 178.89 130.279 178.89 127.253H178.04ZM178.04 110.575V127.253H178.89V110.575H178.04ZM172.388 104.935C175.51 104.935 178.04 107.461 178.04 110.575H178.89C178.89 106.989 175.978 104.085 172.388 104.085V104.935ZM167.829 104.935H172.388V104.085H167.829V104.935ZM167.404 102.992V104.51H168.254V102.992H167.404ZM163.271 98.8684C165.554 98.8684 167.404 100.715 167.404 102.992H168.254C168.254 100.244 166.022 98.0184 163.271 98.0184V98.8684ZM157.193 98.8684H163.271V98.0184H157.193V98.8684ZM170.868 132.893H167.83V133.743H170.868V132.893ZM169.349 135.258C170.422 135.258 171.292 134.391 171.293 133.319L170.443 133.318C170.443 133.919 169.954 134.408 169.349 134.408V135.258ZM167.405 133.319C167.406 134.391 168.277 135.258 169.349 135.258V134.408C168.744 134.408 168.255 133.919 168.255 133.318L167.405 133.319ZM175.002 127.253C175.002 128.665 173.876 129.816 172.47 129.859L172.496 130.709C174.358 130.652 175.852 129.128 175.852 127.253H175.002ZM175.002 110.575V127.253H175.852V110.575H175.002ZM172.388 107.967C173.832 107.967 175.002 109.135 175.002 110.575H175.852C175.852 108.664 174.3 107.117 172.388 107.117V107.967ZM148.077 107.967H172.388V107.117H148.077V107.967ZM145.464 110.575C145.464 109.135 146.633 107.967 148.077 107.967V107.117C146.165 107.117 144.614 108.664 144.614 110.575H145.464ZM145.464 127.253V110.575H144.614V127.253H145.464ZM147.995 129.859C146.589 129.816 145.464 128.665 145.464 127.253H144.614C144.614 129.127 146.107 130.652 147.969 130.709L147.995 129.859ZM155.675 129.859H147.982V130.709H155.675V129.859ZM156.1 130.286V130.284H155.25V130.286H156.1ZM164.791 129.861H155.675V130.711H164.791V129.861ZM164.366 130.284V130.286H165.216V130.284H164.366ZM172.483 129.859H164.791V130.709H172.483V129.859ZM149.172 133.319C149.173 134.391 150.044 135.258 151.116 135.258V134.408C150.511 134.408 150.023 133.919 150.022 133.318L149.172 133.319ZM152.636 132.893H149.597V133.743H152.636V132.893ZM151.116 135.258C152.189 135.258 153.06 134.391 153.061 133.319L152.211 133.318C152.21 133.919 151.721 134.408 151.116 134.408V135.258ZM152.636 114.032C153.241 114.032 153.73 114.522 153.73 115.123H154.58C154.58 114.05 153.709 113.182 152.636 113.182V114.032ZM151.541 115.123C151.541 114.522 152.03 114.032 152.636 114.032V113.182C151.563 113.182 150.691 114.05 150.691 115.123H151.541ZM160.233 123.796C155.432 123.796 151.541 119.912 151.541 115.123H150.691C150.691 120.383 154.964 124.646 160.233 124.646V123.796ZM168.924 115.123C168.924 119.912 165.034 123.796 160.233 123.796V124.646C165.501 124.646 169.774 120.383 169.774 115.123H168.924ZM167.83 114.032C168.435 114.032 168.924 114.522 168.924 115.123H169.774C169.774 114.05 168.903 113.182 167.83 113.182V114.032ZM166.735 115.123C166.735 114.522 167.224 114.032 167.83 114.032V113.182C166.757 113.182 165.885 114.05 165.885 115.123H166.735ZM160.233 121.613C163.823 121.613 166.735 118.709 166.735 115.123H165.885C165.885 118.237 163.355 120.763 160.233 120.763V121.613ZM153.73 115.123C153.73 118.709 156.642 121.613 160.233 121.613V120.763C157.11 120.763 154.58 118.237 154.58 115.123H153.73Z" fill="white" mask="url(#path-18-outside-1_1712_8103)"/>
</svg>
